<svg width="36" height="34" viewBox="0 0 36 34" fill="none" xmlns="http://www.w3.org/2000/svg">
<g clip-path="url(#clip0_2169_51210)">
<path d="M18.263 33.3716C27.836 33.3716 35.5964 26.0423 35.5964 17.0012C35.5964 7.96012 27.836 0.630859 18.263 0.630859C8.69009 0.630859 0.929688 7.96012 0.929688 17.0012C0.929688 26.0423 8.69009 33.3716 18.263 33.3716Z" fill="#151527"/>
<path d="M18.127 1.25926C27.2601 1.25926 34.6725 8.31111 34.6725 17C34.6725 25.6889 27.2601 32.7407 18.127 32.7407C8.99384 32.7407 1.58145 25.6889 1.58145 17C1.58145 8.31111 8.99384 1.25926 18.127 1.25926ZM18.127 0C8.26583 0 0.257812 7.61852 0.257812 17C0.257812 26.3815 8.26583 34 18.127 34C27.9881 34 35.9961 26.3815 35.9961 17C35.9961 7.61852 27.9881 0 18.127 0Z" fill="#5B707F"/>
<path d="M16.715 16.6367C16.715 16.6367 18.2284 16.5214 18.2284 14.711C18.2284 12.9015 17.2015 12.0095 15.6327 12.0095L10.2578 12.001V22.0005H15.7573C15.7573 22.0005 18.5075 22.0875 18.5075 19.001C18.5083 19.001 18.7106 16.6367 16.715 16.6367ZM12.2586 13.5015H15.0087C15.0087 13.5015 15.9494 13.5169 15.9494 14.7366C15.9494 16.0008 15.0087 16.0008 15.0087 16.0008H12.2586V13.5015ZM15.2588 20.5007H12.2586V17.5013H15.258C15.258 17.5013 16.7577 17.5167 16.7577 19.001C16.7577 20.4854 15.4748 20.5007 15.2588 20.5007Z" fill="#99999B"/>
<path d="M22.7606 14.501C19.0041 14.501 19.0109 18.2507 19.0109 18.2507C19.0109 18.2507 18.7608 22.0004 22.7606 22.0004C22.7606 22.0004 26.2602 22.0004 26.2602 19.001H24.2603C24.2603 19.001 24.2603 20.5007 22.7606 20.5007C22.7606 20.5007 21.2609 20.5007 21.2609 18.5008H26.2602C26.2602 17.5012 26.2602 14.501 22.7606 14.501ZM21.26 17.5012C21.26 17.5012 21.2268 16.0015 22.7597 16.0015C24.2919 16.0015 24.2595 17.5012 24.2595 17.5012H21.26Z" fill="#99999B"/>
<path d="M20.7578 13.001H24.7576V14.0005H20.7578V13.001Z" fill="#99999B"/>
</g>
<defs>
<clipPath id="clip0_2169_51210">
<rect width="36" height="34" fill="white"/>
</clipPath>
</defs>
</svg>
