<svg width="36" height="34" viewBox="0 0 36 34" fill="none" xmlns="http://www.w3.org/2000/svg">
<g clip-path="url(#clip0_2169_51219)">
<path d="M18.263 33.3716C27.836 33.3716 35.5964 26.0423 35.5964 17.0012C35.5964 7.96012 27.836 0.630859 18.263 0.630859C8.69009 0.630859 0.929688 7.96012 0.929688 17.0012C0.929688 26.0423 8.69009 33.3716 18.263 33.3716Z" fill="#151527"/>
<path d="M18.127 1.25926C27.2601 1.25926 34.6725 8.31111 34.6725 17C34.6725 25.6889 27.2601 32.7407 18.127 32.7407C8.99384 32.7407 1.58145 25.6889 1.58145 17C1.58145 8.31111 8.99384 1.25926 18.127 1.25926ZM18.127 0C8.26583 0 0.257812 7.61852 0.257812 17C0.257812 26.3815 8.26583 34 18.127 34C27.9881 34 35.9961 26.3815 35.9961 17C35.9961 7.61852 27.9881 0 18.127 0Z" fill="#5B707F"/>
<path d="M18.263 24.8716C22.863 24.8716 26.5964 21.3457 26.5964 17.0012C26.5964 12.6568 22.863 9.13086 18.263 9.13086C13.663 9.13086 9.92969 12.6568 9.92969 17.0012C9.92969 21.3457 13.663 24.8716 18.263 24.8716ZM18.263 23.4235C16.8964 23.4235 15.5297 23.0142 14.3964 22.2901C15.6297 20.6216 17.3964 19.3623 19.4297 18.6697C19.8964 20.1179 20.1964 21.5975 20.3297 23.1086C19.663 23.329 18.963 23.4235 18.263 23.4235ZM21.763 22.479C21.6297 21.0623 21.3297 19.6457 20.863 18.2605C22.1964 18.0086 23.5964 18.0086 24.9297 18.2605C24.563 20.0549 23.3964 21.566 21.763 22.479ZM25.063 16.8438C23.4964 16.5605 21.8964 16.592 20.363 16.9068C20.163 16.4346 19.963 15.9938 19.7297 15.5216C21.063 14.766 22.263 13.7586 23.1964 12.5623C24.363 13.7272 25.0297 15.2697 25.063 16.8438ZM18.263 10.579C19.5964 10.579 20.9297 10.9568 22.0297 11.6494C21.2297 12.6883 20.1964 13.6012 19.0297 14.2623C18.2964 13.0346 17.4297 11.8697 16.463 10.7994C17.063 10.642 17.663 10.579 18.263 10.579ZM14.9964 11.366C16.0297 12.4364 16.9297 13.6327 17.6964 14.892C15.7964 15.6475 13.6964 15.8679 11.6297 15.5216C12.0964 13.7586 13.2964 12.2475 14.9964 11.366ZM13.563 17.1901C15.2297 17.1901 16.863 16.8438 18.3964 16.2142C18.5964 16.592 18.763 16.9697 18.9297 17.3475C16.663 18.1031 14.6964 19.5197 13.263 21.3457C12.0964 20.1494 11.463 18.6068 11.463 17.0012C12.163 17.0957 12.863 17.1586 13.563 17.1901Z" fill="#99999B"/>
</g>
<defs>
<clipPath id="clip0_2169_51219">
<rect width="36" height="34" fill="white"/>
</clipPath>
</defs>
</svg>
