<svg width="35" height="34" viewBox="0 0 35 34" fill="none" xmlns="http://www.w3.org/2000/svg">
<g clip-path="url(#clip0_2169_51190)">
<path d="M17.7581 33.3716C27.0651 33.3716 34.61 26.0423 34.61 17.0012C34.61 7.96012 27.0651 0.630859 17.7581 0.630859C8.45108 0.630859 0.90625 7.96012 0.90625 17.0012C0.90625 26.0423 8.45108 33.3716 17.7581 33.3716Z" fill="#151527"/>
<path d="M17.7578 1.25926C26.7023 1.25926 33.9615 8.31111 33.9615 17C33.9615 25.6889 26.7023 32.7407 17.7578 32.7407C8.81337 32.7407 1.55411 25.6889 1.55411 17C1.55411 8.31111 8.81337 1.25926 17.7578 1.25926ZM17.7578 0C8.10041 0 0.257812 7.61852 0.257812 17C0.257812 26.3815 8.10041 34 17.7578 34C27.4152 34 35.2578 26.3815 35.2578 17C35.2578 7.61852 27.4152 0 17.7578 0Z" fill="#5B707F"/>
<path d="M20.7714 17.6301H18.5677V25.5005H15.1973V17.6301H13.6094V14.8598H15.1973V13.0653C15.1973 11.7746 15.8131 9.75977 18.6001 9.75977H21.0955V12.4357H19.2807C18.989 12.4357 18.5677 12.5931 18.5677 13.1912V14.8283H21.0631L20.7714 17.6301Z" fill="#99999B"/>
</g>
<defs>
<clipPath id="clip0_2169_51190">
<rect width="35" height="34" fill="white"/>
</clipPath>
</defs>
</svg>
