<svg width="53" height="50" viewBox="0 0 53 50" fill="none" xmlns="http://www.w3.org/2000/svg">
<path d="M0 1.53846C0 0.688793 0.688793 0 1.53846 0H50.7692C51.6189 0 52.3077 0.688793 52.3077 1.53846V39.805H0V1.53846Z" fill="white"/>
<path d="M50.7692 49.6923V50H1.53846V49.6923H50.7692ZM52 48.4615V1.53846C52 0.858727 51.449 0.307693 50.7692 0.307692H1.53846C0.858726 0.307692 0.307692 0.858727 0.307692 1.53846V48.4615C0.307692 49.1413 0.858727 49.6923 1.53846 49.6923V50C0.70208 50 0.0216035 49.3326 0.000525841 48.5013L0 48.4615V1.53846C0 0.688793 0.688793 3.09739e-09 1.53846 0H50.7692L50.809 0.000525841C51.6403 0.0216042 52.3077 0.70208 52.3077 1.53846V48.4615C52.3077 49.2979 51.6403 49.9784 50.809 49.9995L50.7692 50V49.6923C51.449 49.6923 52 49.1413 52 48.4615Z" fill="#5F6368"/>
<path d="M21.2073 10.1542C22.7098 8.60615 24.9029 7.78659 27.058 7.87006C28.3177 7.95354 29.5774 8.27984 30.6549 8.95522C31.1027 9.23599 31.5504 9.53194 31.8994 9.92655C31.558 10.3211 31.1634 10.6702 30.7991 11.0496C30.4121 11.4215 30.0554 11.8161 29.6608 12.1727C29.0462 11.6112 28.2797 11.1862 27.445 11.0724C26.5799 10.9738 25.6617 11.0117 24.8725 11.4063C23.9922 11.8009 23.2486 12.4915 22.7553 13.3262C22.5884 13.607 22.4745 13.9181 22.3379 14.214C21.4577 13.569 20.6154 12.8709 19.7427 12.2107C20.0842 11.4291 20.6078 10.7461 21.2073 10.1542Z" fill="#EA4335"/>
<path d="M19.7428 12.2021C20.6155 12.8623 21.4578 13.5529 22.3381 14.2055C22.2091 14.8354 22.0118 15.4804 22.1332 16.133C22.1711 16.4896 22.2774 16.8387 22.3381 17.1878C21.6551 17.7266 20.957 18.2578 20.274 18.8041C20.0995 18.9407 19.9173 19.0622 19.72 19.1608C19.2571 18.2198 18.9536 17.1802 18.9233 16.1178C18.8929 15.4273 18.9157 14.7215 19.0674 14.0462C19.2344 13.4163 19.4089 12.7713 19.7428 12.2021Z" fill="#FBBC04"/>
<path d="M26.7698 14.2664C28.9097 14.2664 31.0497 14.2664 33.1896 14.2664C33.4628 14.2664 33.736 14.2437 34.0092 14.2892C34.4797 16.6189 33.9637 19.1914 32.4232 21.0278C32.2562 21.2251 32.0893 21.4452 31.8616 21.5742C31.0041 20.9443 30.1922 20.2689 29.3423 19.6315C30.0859 19.0775 30.6551 18.2428 30.7537 17.3018C29.4181 17.2791 28.0826 17.3094 26.747 17.2867C26.7091 16.4975 26.747 15.7007 26.7318 14.9115C26.7394 14.699 26.7015 14.4713 26.7698 14.2664Z" fill="#4284F4"/>
<path d="M20.274 18.8048C20.9569 18.2585 21.6551 17.7273 22.338 17.1885C22.505 17.4996 22.6112 17.8487 22.8085 18.1446C23.4232 19.1539 24.4324 19.9203 25.5707 20.2315C26.3675 20.4212 27.2098 20.3908 28.0066 20.2163C28.4771 20.0949 28.9097 19.8672 29.3346 19.632C30.1845 20.2694 30.9965 20.9524 31.854 21.5746C31.6491 21.8402 31.3683 22.0223 31.0951 22.2121C29.8203 23.1151 28.2419 23.4718 26.7014 23.5097C25.1458 23.4793 23.5901 23.0392 22.3077 22.1438C21.2073 21.3925 20.3043 20.3529 19.7124 19.1615C19.9173 19.0628 20.107 18.949 20.274 18.8048Z" fill="#34A853"/>
<path d="M27.5494 28.1795C28.0263 28.1641 28.5033 28.1641 28.9802 28.1795C29.3494 28.1795 29.6879 28.4103 29.8956 28.7103C30.0648 28.9718 30.0725 29.2949 30.0263 29.5949C29.9879 29.8949 29.7571 30.1334 29.5186 30.3026C29.0879 30.5718 28.5725 30.4487 28.0956 30.4795C28.0494 30.9795 28.0956 31.4872 28.0802 31.9872C27.9033 32.0026 27.7263 32.0026 27.5494 31.9872C27.5417 30.718 27.534 29.4487 27.5494 28.1795ZM28.0956 28.7103C28.0571 29.118 28.0648 29.5334 28.0879 29.9487C28.4186 29.9487 28.7494 29.9718 29.0802 29.9334C29.5263 29.7795 29.6417 29.1334 29.2802 28.8334C28.9263 28.6103 28.4879 28.741 28.0956 28.7103ZM35.5032 29.2026C35.5109 28.9641 35.4802 28.7257 35.534 28.4949C35.7032 28.4872 35.8725 28.4949 36.0494 28.5026C36.0648 28.7334 36.0494 28.9641 36.0648 29.1949C36.2417 29.2872 36.4802 29.218 36.6802 29.2487C36.6878 29.4103 36.6878 29.5718 36.6802 29.7411C36.4725 29.7487 36.2648 29.7564 36.0571 29.7795C36.0571 30.2718 36.0494 30.7641 36.0571 31.2641C36.0494 31.3949 36.1109 31.5411 36.2494 31.5718C36.4032 31.5872 36.5571 31.5564 36.7109 31.5487C36.7263 31.718 36.7109 31.8872 36.6648 32.0487C36.4186 32.0641 36.1571 32.0949 35.9186 32.0257C35.7263 31.9103 35.5263 31.7411 35.5186 31.4949C35.4648 30.9257 35.534 30.3487 35.4802 29.7795C35.3263 29.7564 35.1648 29.7334 35.0109 29.7103C35.0109 29.5564 35.0109 29.4026 35.0263 29.2564C35.1879 29.241 35.3494 29.2564 35.5032 29.2026ZM30.4802 29.7411C30.9032 28.9487 32.2494 28.9487 32.6802 29.7411C32.8032 30.0026 32.7725 30.3026 32.7802 30.5795C32.7725 31.0487 32.7956 31.518 32.7725 31.9872C32.634 31.9949 32.4956 31.9949 32.3571 31.9795C32.3109 31.918 32.2725 31.8487 32.2263 31.7872C31.9109 31.9872 31.5417 32.1949 31.1648 32.0641C30.6109 31.9795 30.1879 31.3487 30.434 30.818C30.5879 30.4103 31.034 30.2257 31.4417 30.1949C31.7263 30.1718 32.0032 30.2718 32.2879 30.2872C32.2571 29.9564 32.0109 29.6334 31.6494 29.6564C31.334 29.6026 31.0725 29.7949 30.8648 30.0103C30.7109 29.9487 30.5956 29.8487 30.4802 29.7411ZM30.9263 31.1949C30.9494 31.4718 31.2494 31.6257 31.5032 31.6103C31.8956 31.5949 32.234 31.2487 32.2494 30.8564C32.034 30.6641 31.7186 30.6487 31.4417 30.6718C31.1725 30.6872 30.8879 30.9103 30.9263 31.1949ZM37.6648 29.4641C37.9109 29.318 38.1648 29.1257 38.4802 29.1564C39.0109 29.1103 39.4878 29.5795 39.4878 30.0949C39.4955 30.7257 39.4878 31.3487 39.4878 31.9795C39.3109 31.9949 39.134 32.0026 38.9571 31.9872C38.934 31.3641 38.9878 30.7411 38.9263 30.118C38.8955 29.718 38.4032 29.5949 38.0802 29.718C37.7955 29.841 37.6417 30.1487 37.6417 30.4487C37.6263 30.9641 37.6494 31.4718 37.6417 31.9872C37.4571 32.0026 37.2802 32.0026 37.0955 31.9872C37.0879 31.0795 37.0802 30.1641 37.0955 29.2564C37.2648 29.241 37.4263 29.241 37.5955 29.2641C37.6186 29.3103 37.6494 29.4103 37.6648 29.4641ZM40.4494 29.4103C40.9648 29.0103 41.7878 29.0795 42.2186 29.5718C42.4801 29.8949 42.6109 30.3257 42.5494 30.7411C41.8571 30.7641 41.1571 30.7411 40.4648 30.7487C40.4032 31.2564 40.9263 31.6718 41.4109 31.5872C41.6955 31.5795 41.8648 31.3334 42.0571 31.1564C42.2263 31.1334 42.3571 31.2641 42.5032 31.3257C42.2263 32.018 41.3109 32.3026 40.6571 31.9641C39.7109 31.5257 39.634 30.0257 40.4494 29.4103ZM40.4648 30.2872C40.9648 30.3103 41.4725 30.3103 41.9725 30.2872C41.9417 29.9257 41.5801 29.6257 41.2109 29.6718C40.8494 29.6487 40.5725 29.9641 40.4648 30.2872ZM43.9878 29.1949C44.1801 29.1257 44.3955 29.1641 44.5878 29.1949C44.6032 29.3795 44.6109 29.5641 44.6032 29.7487C44.4032 29.741 44.1955 29.6872 43.9955 29.7334C43.7032 29.8334 43.5263 30.1334 43.5263 30.4334C43.5109 30.9411 43.534 31.4564 43.5263 31.9641C43.3494 31.9872 43.1648 31.9872 42.9878 31.9718C42.9801 31.0641 42.9801 30.1487 42.9878 29.241C43.1263 29.2257 43.2725 29.2257 43.4109 29.2257C43.4571 29.2949 43.5032 29.3641 43.5571 29.4334C43.6955 29.3641 43.834 29.2641 43.9878 29.1949ZM33.7571 29.5257C33.9571 29.418 34.134 29.241 34.3725 29.241C34.4955 29.2334 34.6263 29.241 34.7494 29.2487C34.7571 29.418 34.7571 29.5872 34.7571 29.7487C34.5186 29.7872 34.234 29.7257 34.0417 29.9026C33.9109 30.0257 33.7879 30.1872 33.7879 30.3795C33.7648 30.9334 33.8032 31.4872 33.7725 32.0411C33.6032 32.0564 33.4263 32.0564 33.2494 32.0487C33.234 31.1334 33.234 30.2257 33.2494 29.3103C33.3956 29.3026 33.5494 29.2949 33.7032 29.3257C33.7186 29.3718 33.7417 29.4718 33.7571 29.5257Z" fill="#606469"/>
<path d="M9.48053 28.4716C10.0344 28.0331 10.8344 28.0024 11.4805 28.2408C11.7113 28.3485 11.9805 28.4793 12.0882 28.7331C11.9805 28.8562 11.8651 28.9716 11.7344 29.0716C11.5498 28.9178 11.3574 28.7562 11.1267 28.6793C10.5498 28.5101 9.86514 28.687 9.5113 29.187C9.2113 29.5331 9.19591 30.0255 9.26514 30.4639C9.39591 31.1408 10.0882 31.6408 10.7728 31.5793C11.3882 31.587 11.9959 31.0716 11.9959 30.4331C11.5498 30.4024 11.1036 30.4331 10.6574 30.4178C10.5882 30.2793 10.5959 30.1178 10.6267 29.9716C11.2498 29.9101 11.8882 29.9485 12.5113 29.9485C12.5805 30.5101 12.4959 31.1331 12.0651 31.5408C11.3728 32.2793 10.119 32.287 9.37284 31.6408C8.89592 31.2332 8.61899 30.6024 8.66515 29.9716C8.70361 29.3793 9.0113 28.8255 9.48053 28.4716ZM22.3728 28.1947C22.5497 28.1639 22.7343 28.1639 22.9113 28.1716C22.9343 29.4331 22.919 30.6947 22.919 31.9562C22.742 32.0255 22.5574 31.987 22.3728 31.9793C22.3651 30.7178 22.3728 29.4562 22.3728 28.1947ZM13.9498 29.1947C14.3421 29.1101 14.7805 29.1562 15.1113 29.3947C15.7574 29.8178 15.9344 30.7716 15.5267 31.4178C15.2882 31.8716 14.7574 32.1101 14.2574 32.1101C13.919 32.0716 13.5728 31.9562 13.3344 31.7178C12.9267 31.3332 12.7959 30.7024 12.9574 30.1793C13.0728 29.687 13.4805 29.3255 13.9498 29.1947ZM14.0113 29.7178C13.6882 29.8255 13.4728 30.1485 13.4574 30.4793C13.4267 30.8101 13.4882 31.1947 13.7728 31.4024C14.2113 31.787 14.9882 31.5408 15.1344 30.9793C15.2036 30.6255 15.2113 30.1793 14.9113 29.9178C14.7036 29.6639 14.319 29.6178 14.0113 29.7178ZM17.0344 29.2024C17.3959 29.1255 17.7959 29.1331 18.119 29.3331C18.8805 29.7255 19.0805 30.8178 18.5959 31.4947C18.342 31.8947 17.8728 32.1101 17.4113 32.1178C16.9728 32.087 16.519 31.8947 16.2728 31.5178C16.0267 31.1947 15.9882 30.7716 16.0267 30.3793C16.0805 29.8255 16.519 29.3639 17.0344 29.2024ZM17.1574 29.7101C16.4344 29.9331 16.3421 31.0408 16.9421 31.4485C17.2344 31.6485 17.6882 31.6485 17.9574 31.4024C18.3959 31.0562 18.419 30.3408 18.0574 29.9331C17.8421 29.6793 17.4651 29.6178 17.1574 29.7101ZM19.1805 30.1639C19.3267 29.587 19.8728 29.0947 20.4882 29.1562C20.7882 29.1331 21.0267 29.3331 21.2728 29.4716C21.2959 29.3947 21.319 29.3178 21.342 29.2408C21.5036 29.2331 21.6651 29.2331 21.819 29.2408C21.8343 30.1178 21.819 31.0024 21.8267 31.8793C21.8343 32.3101 21.6574 32.7793 21.2805 33.0178C20.9497 33.2332 20.5344 33.2332 20.1574 33.1947C19.742 33.1408 19.3728 32.8332 19.2497 32.4332C19.3805 32.3332 19.5267 32.2101 19.7036 32.2408C19.8497 32.387 19.9728 32.5716 20.1651 32.6716C20.519 32.8408 20.9651 32.7024 21.1882 32.387C21.3113 32.2024 21.3036 31.9716 21.3036 31.7639C21.019 31.9485 20.6959 32.1485 20.342 32.1101C19.9882 32.0562 19.6113 31.9024 19.4113 31.587C19.119 31.187 19.0574 30.6408 19.1805 30.1639ZM20.1728 29.7255C19.5728 30.0024 19.4959 30.8947 19.919 31.3562C20.1574 31.6101 20.5651 31.6562 20.8728 31.4947C21.4651 31.1331 21.4728 30.1408 20.8959 29.7639C20.6728 29.6485 20.4036 29.6408 20.1728 29.7255ZM23.7574 29.5485C24.0036 29.287 24.3651 29.1331 24.7267 29.1639C25.1805 29.1408 25.6036 29.4331 25.8343 29.8101C25.9882 30.087 26.0036 30.4101 25.9959 30.7178C25.3113 30.8024 24.6113 30.7178 23.919 30.7562C23.8574 31.2793 24.419 31.7024 24.9113 31.5793C25.1959 31.5485 25.3497 31.3024 25.519 31.1024C25.6651 31.1639 25.8036 31.2331 25.942 31.2947C25.8497 31.6947 25.442 31.9639 25.0574 32.0562C24.6497 32.1793 24.219 32.0485 23.8728 31.8178C23.5036 31.5485 23.3651 31.0716 23.319 30.6408C23.3651 30.2562 23.4651 29.8255 23.7574 29.5485ZM24.3574 29.7331C24.119 29.8178 24.0113 30.0716 23.942 30.2947C24.442 30.3024 24.942 30.3024 25.442 30.2947C25.3882 30.1331 25.3497 29.9485 25.2036 29.8408C24.9728 29.6408 24.6267 29.6255 24.3574 29.7331Z" fill="#606469"/>
<path d="M0 39.8047H52.3077V48.4612C52.3077 49.3109 51.6189 49.9997 50.7692 49.9997H1.53846C0.688794 49.9997 0 49.3109 0 48.4612V39.8047Z" fill="#5F656A"/>
<path d="M38.9565 46.3359C38.7521 46.3359 38.5731 46.2995 38.4194 46.2266C38.2658 46.1536 38.144 46.0547 38.0542 45.9297C37.9644 45.8047 37.9136 45.6641 37.9019 45.5078L37.8999 45.4785H38.4448L38.4487 45.4922C38.4631 45.5625 38.493 45.6263 38.5386 45.6836C38.5854 45.7409 38.6447 45.7865 38.7163 45.8203C38.7879 45.8529 38.8687 45.8691 38.9585 45.8691C39.0614 45.8691 39.1519 45.8477 39.23 45.8047C39.3094 45.7604 39.3713 45.6999 39.4155 45.623C39.4611 45.5462 39.4839 45.4577 39.4839 45.3574V45.3535C39.4839 45.2546 39.4611 45.1673 39.4155 45.0918C39.3713 45.015 39.3094 44.9551 39.23 44.9121C39.1519 44.8691 39.062 44.8477 38.9604 44.8477C38.8888 44.8477 38.8224 44.8581 38.7612 44.8789C38.7 44.8984 38.6453 44.9277 38.5972 44.9668C38.5698 44.9889 38.5444 45.013 38.521 45.0391C38.4976 45.0651 38.478 45.0931 38.4624 45.123H37.9487L38.0776 43.4688H39.8765V43.9375H38.5464L38.478 44.7305H38.4897C38.5288 44.6667 38.5796 44.6126 38.6421 44.5684C38.7059 44.5228 38.7782 44.4876 38.8589 44.4629C38.9409 44.4382 39.0295 44.4258 39.1245 44.4258C39.3042 44.4258 39.4631 44.4655 39.6011 44.5449C39.7391 44.623 39.8478 44.7311 39.9272 44.8691C40.0067 45.0072 40.0464 45.1647 40.0464 45.3418V45.3457C40.0464 45.5423 40.0002 45.7148 39.9077 45.8633C39.8166 46.0117 39.689 46.1276 39.5249 46.2109C39.3608 46.2943 39.1714 46.3359 38.9565 46.3359Z" fill="white"/>
<path d="M35.4604 46.2871V45.8828L36.4565 44.9512C36.5789 44.8379 36.6714 44.7435 36.7339 44.668C36.7964 44.5924 36.8387 44.5247 36.8608 44.4648C36.8843 44.4049 36.896 44.3424 36.896 44.2773V44.2734C36.896 44.1966 36.8778 44.1289 36.8413 44.0703C36.8049 44.0104 36.7541 43.9635 36.689 43.9297C36.6252 43.8958 36.5516 43.8789 36.4683 43.8789C36.3719 43.8789 36.2873 43.8984 36.2144 43.9375C36.1414 43.9753 36.0841 44.028 36.0425 44.0957C36.0008 44.1621 35.9787 44.2376 35.9761 44.3223L35.9741 44.3398H35.4272V44.3242C35.4272 44.1471 35.4722 43.9909 35.562 43.8555C35.6519 43.7187 35.7749 43.612 35.9312 43.5352C36.0887 43.4583 36.2664 43.4199 36.4644 43.4199C36.6636 43.4199 36.8387 43.4551 36.9897 43.5254C37.1408 43.5944 37.2586 43.6908 37.3433 43.8145C37.4279 43.9382 37.4702 44.0801 37.4702 44.2402V44.2441C37.4702 44.3574 37.4494 44.4629 37.4077 44.5605C37.3674 44.6569 37.3003 44.7598 37.2065 44.8691C37.1128 44.9772 36.9845 45.1061 36.8218 45.2559L36.0054 46L36.2319 45.6035V46L36.0073 45.8184H37.5093V46.2871H35.4604Z" fill="white"/>
<path d="M33.9683 46.3359C33.73 46.3359 33.5249 46.2767 33.353 46.1582C33.1812 46.0397 33.049 45.8717 32.9565 45.6543C32.8654 45.4355 32.8198 45.1771 32.8198 44.8789V44.875C32.8198 44.5755 32.8654 44.3171 32.9565 44.0996C33.049 43.8822 33.1812 43.7148 33.353 43.5977C33.5249 43.4792 33.73 43.4199 33.9683 43.4199C34.2065 43.4199 34.411 43.4792 34.5815 43.5977C34.7534 43.7148 34.8856 43.8822 34.978 44.0996C35.0705 44.3171 35.1167 44.5755 35.1167 44.875V44.8789C35.1167 45.1771 35.0705 45.4355 34.978 45.6543C34.8856 45.8717 34.7534 46.0397 34.5815 46.1582C34.411 46.2767 34.2065 46.3359 33.9683 46.3359ZM33.9683 45.8633C34.0854 45.8633 34.1851 45.8242 34.2671 45.7461C34.3491 45.668 34.4116 45.5553 34.4546 45.4082C34.4989 45.2611 34.521 45.0846 34.521 44.8789V44.875C34.521 44.668 34.4989 44.4915 34.4546 44.3457C34.4116 44.1986 34.3491 44.0866 34.2671 44.0098C34.1851 43.9316 34.0854 43.8926 33.9683 43.8926C33.8511 43.8926 33.7508 43.9316 33.6675 44.0098C33.5854 44.0866 33.5229 44.1986 33.48 44.3457C33.437 44.4915 33.4155 44.668 33.4155 44.875V44.8789C33.4155 45.0846 33.437 45.2611 33.48 45.4082C33.5229 45.5553 33.5854 45.668 33.6675 45.7461C33.7508 45.8242 33.8511 45.8633 33.9683 45.8633Z" fill="white"/>
<path d="M30.4526 46.2871V45.8828L31.4487 44.9512C31.5711 44.8379 31.6636 44.7435 31.7261 44.668C31.7886 44.5924 31.8309 44.5247 31.853 44.4648C31.8765 44.4049 31.8882 44.3424 31.8882 44.2773V44.2734C31.8882 44.1966 31.87 44.1289 31.8335 44.0703C31.797 44.0104 31.7463 43.9635 31.6812 43.9297C31.6174 43.8958 31.5438 43.8789 31.4604 43.8789C31.3641 43.8789 31.2795 43.8984 31.2065 43.9375C31.1336 43.9753 31.0763 44.028 31.0347 44.0957C30.993 44.1621 30.9709 44.2376 30.9683 44.3223L30.9663 44.3398H30.4194V44.3242C30.4194 44.1471 30.4644 43.9909 30.5542 43.8555C30.644 43.7187 30.7671 43.612 30.9233 43.5352C31.0809 43.4583 31.2586 43.4199 31.4565 43.4199C31.6558 43.4199 31.8309 43.4551 31.9819 43.5254C32.133 43.5944 32.2508 43.6908 32.3354 43.8145C32.4201 43.9382 32.4624 44.0801 32.4624 44.2402V44.2441C32.4624 44.3574 32.4416 44.4629 32.3999 44.5605C32.3595 44.6569 32.2925 44.7598 32.1987 44.8691C32.105 44.9772 31.9767 45.1061 31.814 45.2559L30.9976 46L31.2241 45.6035V46L30.9995 45.8184H32.5015V46.2871H30.4526Z" fill="white"/>
<path d="M27.1323 46.2871V43.4688H28.2964C28.5073 43.4688 28.6877 43.5046 28.8374 43.5762C28.9884 43.6478 29.1037 43.7513 29.1831 43.8867C29.2638 44.0208 29.3042 44.1823 29.3042 44.3711V44.375C29.3042 44.5599 29.258 44.7246 29.1655 44.8691C29.0744 45.0137 28.9507 45.1165 28.7944 45.1777L29.3882 46.2871H28.7202L28.1948 45.2656C28.1909 45.2656 28.1864 45.2656 28.1812 45.2656C28.1759 45.2656 28.1707 45.2656 28.1655 45.2656H27.7222V46.2871H27.1323ZM27.7222 44.8184H28.2319C28.3791 44.8184 28.4937 44.7793 28.5757 44.7012C28.659 44.6217 28.7007 44.513 28.7007 44.375V44.3711C28.7007 44.2357 28.6577 44.1283 28.5718 44.0488C28.4858 43.9694 28.37 43.9297 28.2241 43.9297H27.7222V44.8184Z" fill="white"/>
<path d="M24.8394 46.2871V43.4688H26.7065V43.9551H25.4292V44.6309H26.6343V45.0918H25.4292V45.8008H26.7065V46.2871H24.8394Z" fill="white"/>
<path d="M23.7808 46.2871V43.4688H24.3706V46.2871H23.7808Z" fill="white"/>
<path d="M20.335 46.2871V43.4688H21.0166L21.8174 45.4941H21.8291L22.6299 43.4688H23.3115V46.2871H22.7861V44.3809H22.5127L23.1025 43.5469L22.0088 46.2871H21.6377L20.5439 43.5469L21.1338 44.3809H20.8604V46.2871H20.335Z" fill="white"/>
<path d="M18.0425 46.2871V43.4688H19.9097V43.9551H18.6323V44.6309H19.8374V45.0918H18.6323V45.8008H19.9097V46.2871H18.0425Z" fill="white"/>
<path d="M15.48 46.2871V43.4688H16.644C16.855 43.4688 17.0353 43.5046 17.1851 43.5762C17.3361 43.6478 17.4513 43.7513 17.5308 43.8867C17.6115 44.0208 17.6519 44.1823 17.6519 44.3711V44.375C17.6519 44.5599 17.6056 44.7246 17.5132 44.8691C17.422 45.0137 17.2983 45.1165 17.1421 45.1777L17.7358 46.2871H17.0679L16.5425 45.2656C16.5386 45.2656 16.534 45.2656 16.5288 45.2656C16.5236 45.2656 16.5184 45.2656 16.5132 45.2656H16.0698V46.2871H15.48ZM16.0698 44.8184H16.5796C16.7267 44.8184 16.8413 44.7793 16.9233 44.7012C17.0067 44.6217 17.0483 44.513 17.0483 44.375V44.3711C17.0483 44.2357 17.0054 44.1283 16.9194 44.0488C16.8335 43.9694 16.7176 43.9297 16.5718 43.9297H16.0698V44.8184Z" fill="white"/>
<path d="M13.3037 45.3984V44.9375H13.9951C14.1644 44.9375 14.2959 44.8945 14.3896 44.8086C14.4847 44.7214 14.5322 44.5977 14.5322 44.4375V44.4336C14.5322 44.2734 14.4847 44.1504 14.3896 44.0645C14.2959 43.9785 14.1644 43.9355 13.9951 43.9355H13.3037V43.4688H14.1396C14.3376 43.4688 14.5107 43.5091 14.6592 43.5898C14.8076 43.6693 14.9229 43.7812 15.0049 43.9258C15.0882 44.0703 15.1299 44.2389 15.1299 44.4316V44.4355C15.1299 44.6296 15.0882 44.7988 15.0049 44.9434C14.9229 45.0879 14.8076 45.1999 14.6592 45.2793C14.5107 45.3587 14.3376 45.3984 14.1396 45.3984H13.3037ZM13.0068 46.2871V43.4688H13.5967V46.2871H13.0068Z" fill="white"/>
</svg>
