<svg width="34" height="34" viewBox="0 0 34 34" fill="none" xmlns="http://www.w3.org/2000/svg">
<g clip-path="url(#clip0_2169_51181)">
<path d="M17.261 33.3716C26.3021 33.3716 33.6314 26.0423 33.6314 17.0012C33.6314 7.96012 26.3021 0.630859 17.261 0.630859C8.21989 0.630859 0.890625 7.96012 0.890625 17.0012C0.890625 26.0423 8.21989 33.3716 17.261 33.3716Z" fill="#151527"/>
<path d="M17.2578 1.25926C25.9467 1.25926 32.9986 8.31111 32.9986 17C32.9986 25.6889 25.9467 32.7407 17.2578 32.7407C8.56892 32.7407 1.51707 25.6889 1.51707 17C1.51707 8.31111 8.56892 1.25926 17.2578 1.25926ZM17.2578 0C7.87633 0 0.257812 7.61852 0.257812 17C0.257812 26.3815 7.87633 34 17.2578 34C26.6393 34 34.2578 26.3815 34.2578 17C34.2578 7.61852 26.6393 0 17.2578 0Z" fill="#5B707F"/>
<path d="M20.8729 9.22461H13.7895C11.3969 9.22461 9.47656 11.1765 9.47656 13.5691V20.6524C9.47656 23.045 11.4284 24.9968 13.7895 24.9968H20.8729C23.2655 24.9968 25.2173 23.045 25.2173 20.6524V13.5376C25.2173 11.1765 23.2655 9.22461 20.8729 9.22461ZM23.8321 20.0228C23.8321 22.0061 22.2266 23.6116 20.2747 23.6116H14.4192C12.4358 23.6116 10.8617 22.0061 10.8617 20.0228V14.1672C10.8617 12.1839 12.4673 10.6098 14.4192 10.6098H20.2432C22.2266 10.6098 23.8321 12.2154 23.8321 14.1672V20.0228Z" fill="#99999B"/>
<path d="M20.2149 14.261L20.1835 14.2295L20.152 14.198C19.3964 13.4425 18.389 13.0332 17.3501 13.0332C15.1149 13.0332 13.3205 14.8591 13.352 17.0943C13.352 18.1647 13.7612 19.2036 14.5483 19.9591C15.3038 20.7147 16.3112 21.1554 17.3816 21.1554C19.6168 21.0925 21.3797 19.2351 21.3483 16.9999C21.3168 15.961 20.9075 14.9851 20.2149 14.261ZM17.3501 19.7702C15.8705 19.8017 14.6742 18.6054 14.6427 17.1258C14.6112 15.6462 15.8075 14.4499 17.2872 14.4184C18.7668 14.3869 19.9631 15.5832 19.9946 17.0628V17.0943C19.9946 18.5425 18.7983 19.7388 17.3501 19.7702Z" fill="#99999B"/>
<path d="M22.5373 12.8451C22.5373 13.3803 22.1281 13.821 21.5929 13.821C21.341 13.821 21.0892 13.7265 20.9318 13.5377C20.554 13.1599 20.554 12.5303 20.9318 12.1525C21.1207 11.9636 21.341 11.8691 21.5929 11.8691C21.8133 11.8691 22.0336 11.9321 22.191 12.0895L22.2225 12.121C22.254 12.1525 22.2855 12.184 22.317 12.2154L22.3484 12.2469C22.4744 12.4043 22.5373 12.6247 22.5373 12.8451Z" fill="#99999B"/>
</g>
<defs>
<clipPath id="clip0_2169_51181">
<rect width="34" height="34" fill="white"/>
</clipPath>
</defs>
</svg>
