<svg width="34" height="34" viewBox="0 0 34 34" fill="none" xmlns="http://www.w3.org/2000/svg">
<g clip-path="url(#clip0_2169_51196)">
<path d="M17.261 33.3716C26.3021 33.3716 33.6314 26.0423 33.6314 17.0012C33.6314 7.96012 26.3021 0.630859 17.261 0.630859C8.21989 0.630859 0.890625 7.96012 0.890625 17.0012C0.890625 26.0423 8.21989 33.3716 17.261 33.3716Z" fill="#151527"/>
<path d="M17.2578 1.25926C25.9467 1.25926 32.9986 8.31111 32.9986 17C32.9986 25.6889 25.9467 32.7407 17.2578 32.7407C8.56892 32.7407 1.51707 25.6889 1.51707 17C1.51707 8.31111 8.56892 1.25926 17.2578 1.25926ZM17.2578 0C7.87633 0 0.257812 7.61852 0.257812 17C0.257812 26.3815 7.87633 34 17.2578 34C26.6393 34 34.2578 26.3815 34.2578 17C34.2578 7.61852 26.6393 0 17.2578 0Z" fill="#5B707F"/>
<path d="M26.1367 18.1648V24.2407H22.5793V18.5741C22.5793 17.1574 22.0756 16.1815 20.7848 16.1815C19.8089 16.1815 19.2422 16.8426 18.9589 17.4722C18.8645 17.6926 18.833 18.0074 18.833 18.3222V24.2407H15.3385C15.3385 24.2407 15.4015 14.6074 15.3385 13.6315H18.8645V15.1111L18.833 15.1426H18.8645V15.1111C19.3367 14.387 20.1552 13.3481 22.0441 13.3481C24.3737 13.3796 26.1367 14.8907 26.1367 18.1648ZM11.6552 8.5C10.4589 8.5 9.67188 9.28704 9.67188 10.3259C9.67188 11.3333 10.4274 12.1519 11.6237 12.1519H11.6552C12.883 12.1519 13.6385 11.3333 13.6385 10.3259C13.6071 9.28704 12.8515 8.5 11.6552 8.5ZM9.86076 24.2407H13.3867V13.6315H9.86076V24.2407Z" fill="#99999B"/>
</g>
<defs>
<clipPath id="clip0_2169_51196">
<rect width="34" height="34" fill="white"/>
</clipPath>
</defs>
</svg>
