<svg width="138" height="50" viewBox="0 0 138 50" fill="none" xmlns="http://www.w3.org/2000/svg">
<path d="M137.345 0H0V50H137.345V0Z" fill="white"/>
<path d="M23.8729 0H0V50H23.8729V0Z" fill="#5F95CE"/>
<path d="M14.8491 10.2171C15.3486 10.2171 15.8006 10.3027 16.205 10.474C16.6094 10.6453 16.9567 10.8903 17.2469 11.2091C17.5371 11.5231 17.7607 11.9037 17.9177 12.3509C18.0747 12.7981 18.1532 13.2953 18.1532 13.8424C18.1532 14.7939 18.0105 15.5004 17.7251 15.9619L16.4833 15.9619C16.9305 15.2673 17.1541 14.556 17.1541 13.8281C17.1541 13.457 17.0994 13.124 16.99 12.829C16.8806 12.5293 16.7283 12.2748 16.5333 12.0654C16.3382 11.8561 16.1027 11.6967 15.8268 11.5873C15.5508 11.4731 15.2487 11.416 14.9204 11.416C14.2544 11.416 13.7334 11.6396 13.3576 12.0868C12.977 12.5341 12.7867 13.1835 12.7867 14.0351C12.7867 14.1731 12.789 14.3182 12.7938 14.4704C12.7986 14.6226 12.8057 14.7749 12.8152 14.9271C12.82 15.0794 12.8271 15.2292 12.8366 15.3767C12.8461 15.5195 12.858 15.6503 12.8723 15.7692L7.74121 15.4195L7.74121 10.6881L8.7974 10.6881L8.7974 14.4062L11.8018 14.6131C11.7923 14.4609 11.7852 14.2991 11.7804 14.1279C11.7709 13.9566 11.7662 13.8043 11.7662 13.6711C11.7662 13.1288 11.8375 12.6435 11.9802 12.2153C12.123 11.7871 12.3275 11.4255 12.594 11.1306C12.8556 10.8308 13.1792 10.6048 13.5645 10.4526C13.9451 10.2956 14.3733 10.2171 14.8491 10.2171Z" fill="white"/>
<path d="M10.4244 19.502C10.1104 19.502 9.83683 19.5519 9.6037 19.6518C9.37058 19.747 9.1779 19.8802 9.02565 20.0515C8.86865 20.218 8.75209 20.4154 8.67597 20.6438C8.59985 20.8721 8.56179 21.1195 8.56179 21.386C8.56179 21.6143 8.59271 21.8379 8.65456 22.0568C8.71641 22.2756 8.80205 22.4897 8.91147 22.6991C9.0209 22.9036 9.15173 23.1035 9.30397 23.2985C9.45622 23.4888 9.62511 23.6672 9.81066 23.8338L8.55465 23.8338C8.23589 23.5055 7.99325 23.1391 7.82674 22.7348C7.65546 22.3256 7.56982 21.8284 7.56982 21.2432C7.56982 20.8246 7.63167 20.4368 7.75537 20.08C7.87431 19.7232 8.05034 19.4139 8.28347 19.1523C8.51659 18.8906 8.80442 18.686 9.14697 18.5385C9.48952 18.3863 9.88202 18.3102 10.3245 18.3102C10.7289 18.3102 11.0952 18.3577 11.4235 18.4529C11.7518 18.5433 12.061 18.6836 12.3512 18.8739C12.6414 19.0595 12.9198 19.295 13.1862 19.5805C13.4526 19.8659 13.7238 20.2013 13.9997 20.5867C14.3423 21.0672 14.6349 21.4645 14.8775 21.7785C15.1202 22.0877 15.3485 22.3351 15.5626 22.5207C15.7719 22.7014 15.9837 22.8299 16.1978 22.906C16.4071 22.9774 16.6497 23.0131 16.9257 23.0131L16.9257 17.9177L17.9747 17.9177L17.9747 24.2334L17.468 24.2334C17.0303 24.2334 16.645 24.1858 16.3119 24.0907C15.9789 23.9955 15.6625 23.8385 15.3628 23.6197C15.0631 23.4008 14.7633 23.1154 14.4636 22.7633C14.1639 22.4065 13.8261 21.9712 13.4502 21.4573C13.1838 21.0862 12.9293 20.777 12.6866 20.5296C12.444 20.2774 12.2014 20.0752 11.9587 19.923C11.7161 19.7708 11.4711 19.6637 11.2237 19.6019C10.9715 19.5353 10.7051 19.502 10.4244 19.502Z" fill="white"/>
<path d="M12.8151 25.611C13.6715 25.611 14.4303 25.6895 15.0916 25.8465C15.7529 25.9987 16.3119 26.2223 16.7687 26.5173C17.2206 26.8075 17.5656 27.1667 17.8034 27.5949C18.0366 28.0183 18.1531 28.5012 18.1531 29.0436C18.1531 29.5574 18.0413 30.0165 17.8177 30.4209C17.5894 30.8205 17.2587 31.1583 16.8258 31.4343C16.3928 31.7102 15.8623 31.9195 15.2343 32.0623C14.6016 32.205 13.8784 32.2764 13.0649 32.2764C12.1704 32.2764 11.3807 32.2026 10.6956 32.0551C10.0105 31.9029 9.43719 31.6817 8.9757 31.3915C8.50945 31.1012 8.15977 30.742 7.92665 30.3139C7.68876 29.8809 7.56982 29.3861 7.56982 28.8295C7.56982 26.6838 9.31825 25.611 12.8151 25.611ZM12.9293 26.8099C10.0176 26.8099 8.56179 27.5021 8.56179 28.8866C8.56179 30.3472 10.0438 31.0774 13.0078 31.0774C15.7719 31.0774 17.154 30.3614 17.154 28.9294C17.154 27.5164 15.7458 26.8099 12.9293 26.8099Z" fill="white"/>
<path d="M10.4244 35.2588C10.1104 35.2588 9.83683 35.3087 9.6037 35.4087C9.37058 35.5038 9.1779 35.637 9.02565 35.8083C8.86865 35.9748 8.75209 36.1723 8.67597 36.4006C8.59985 36.629 8.56179 36.8764 8.56179 37.1428C8.56179 37.3712 8.59271 37.5948 8.65456 37.8136C8.71641 38.0325 8.80205 38.2466 8.91147 38.4559C9.0209 38.6605 9.15173 38.8603 9.30397 39.0554C9.45622 39.2457 9.62511 39.4241 9.81066 39.5906L8.55465 39.5906C8.23589 39.2623 7.99325 38.896 7.82674 38.4916C7.65546 38.0824 7.56982 37.5853 7.56982 37.0001C7.56982 36.5814 7.63167 36.1937 7.75537 35.8368C7.87431 35.48 8.05034 35.1708 8.28347 34.9091C8.51659 34.6474 8.80442 34.4429 9.14697 34.2954C9.48952 34.1431 9.88202 34.067 10.3245 34.067C10.7289 34.067 11.0952 34.1146 11.4235 34.2097C11.7518 34.3001 12.061 34.4405 12.3512 34.6308C12.6414 34.8163 12.9198 35.0518 13.1862 35.3373C13.4526 35.6227 13.7238 35.9582 13.9997 36.3435C14.3423 36.824 14.6349 37.2213 14.8775 37.5353C15.1202 37.8446 15.3485 38.0919 15.5626 38.2775C15.7719 38.4583 15.9837 38.5867 16.1978 38.6629C16.4071 38.7342 16.6497 38.7699 16.9257 38.7699L16.9257 33.6745L17.9747 33.6745L17.9747 39.9902L17.468 39.9902C17.0303 39.9902 16.645 39.9427 16.3119 39.8475C15.9789 39.7524 15.6625 39.5954 15.3628 39.3765C15.0631 39.1577 14.7633 38.8722 14.4636 38.5201C14.1639 38.1633 13.8261 37.728 13.4502 37.2142C13.1838 36.8431 12.9293 36.5338 12.6866 36.2864C12.444 36.0343 12.2014 35.8321 11.9587 35.6798C11.7161 35.5276 11.4711 35.4205 11.2237 35.3587C10.9715 35.2921 10.7051 35.2588 10.4244 35.2588Z" fill="white"/>
<path d="M38.6839 39.7279H32.2397V28.252H38.4271V29.8684H34.1443V33.1176H38.0909V34.7264H34.1443V38.1199H38.6832V39.7286L38.6839 39.7279ZM42.382 39.7279H40.5167V27.5957H42.382V39.7279ZM45.7438 29.8125C45.4393 29.8125 45.1779 29.7135 44.9596 29.5164C44.7458 29.3193 44.6393 29.0685 44.6393 28.7641C44.6393 28.4598 44.7458 28.2067 44.9596 28.0036C45.1787 27.8011 45.4401 27.6992 45.7438 27.6992C46.0475 27.6992 46.3255 27.8004 46.5446 28.0036C46.7637 28.206 46.8725 28.4598 46.8725 28.7641C46.8725 29.0519 46.7629 29.3004 46.5446 29.5081C46.3255 29.7105 46.0588 29.8125 45.7438 29.8125ZM46.6647 39.7279H44.8078V31.533H46.6647V39.7279ZM53.4209 39.6395C53.0583 39.8208 52.5801 39.9114 51.9878 39.9114C50.3975 39.9114 49.602 39.1486 49.602 37.6229V32.9892H48.2331V31.533H49.602V29.6365L51.4589 29.1085V31.5338H53.4201V32.99H51.4589V37.0874C51.4589 37.573 51.5473 37.9197 51.7234 38.1274C51.8994 38.3351 52.1933 38.4394 52.6042 38.4394C52.9193 38.4394 53.1912 38.3487 53.4209 38.1675V39.6403V39.6395ZM61.8656 36.1342H56.2781C56.2992 36.8918 56.5319 37.4764 56.9746 37.8872C57.4226 38.2981 58.0368 38.5036 58.8157 38.5036C59.6906 38.5036 60.4944 38.2422 61.2249 37.7196V39.2158C60.4778 39.6856 59.4904 39.9197 58.2635 39.9197C57.0366 39.9197 56.1104 39.5489 55.4221 38.8072C54.7392 38.0602 54.3977 37.0119 54.3977 35.6622C54.3977 34.3872 54.7739 33.3495 55.5264 32.5489C56.2841 31.743 57.2232 31.3404 58.3443 31.3404C59.4654 31.3404 60.332 31.7007 60.9461 32.4205C61.5596 33.141 61.8663 34.141 61.8663 35.4212V36.1335L61.8656 36.1342ZM60.0728 34.8223C60.0675 34.1554 59.9104 33.638 59.6007 33.2702C59.2909 32.8963 58.8641 32.7098 58.3201 32.7098C57.7762 32.7098 57.3327 32.9046 56.9595 33.2943C56.5916 33.6841 56.3642 34.1931 56.2788 34.823H60.0728V34.8223ZM70.2543 35.5662V39.7279H68.3573V28.252H71.8393C73.1576 28.252 74.179 28.5587 74.905 29.172C75.6302 29.7853 75.9936 30.6501 75.9936 31.7649C75.9936 32.8797 75.6144 33.7921 74.8566 34.502C74.0989 35.2113 73.0745 35.5662 71.7826 35.5662H70.2536H70.2543ZM70.2543 29.8208V34.0141H71.4872C72.3039 34.0141 72.9257 33.8246 73.3525 33.4462C73.7793 33.067 73.9931 32.5338 73.9931 31.8457C73.9931 30.496 73.209 29.8208 71.6399 29.8208H70.2551H70.2543ZM83.5506 39.7279H81.7496V38.4477H81.7171C81.152 39.4295 80.3217 39.9205 79.2278 39.9205C78.4225 39.9205 77.7901 39.7014 77.3308 39.2641C76.8775 38.8268 76.6501 38.2475 76.6501 37.5277C76.6501 35.9809 77.5416 35.0791 79.3237 34.823L81.7571 34.4786C81.7571 33.3102 81.2026 32.7264 80.0928 32.7264C79.116 32.7264 78.2351 33.0625 77.4509 33.7347V32.1101C78.3152 31.598 79.3132 31.3419 80.4449 31.3419C82.5156 31.3419 83.5506 32.3608 83.5506 34.3993V39.7294V39.7279ZM81.7571 35.7022L80.0362 35.9424C79.5028 36.0119 79.1001 36.1425 78.8274 36.3344C78.5607 36.5209 78.4278 36.8517 78.4278 37.3268C78.4278 37.6735 78.5501 37.959 78.7957 38.1833C79.0465 38.4023 79.3804 38.5119 79.7967 38.5119C80.3618 38.5119 80.8287 38.3147 81.1973 37.9197C81.5705 37.5194 81.7571 37.0179 81.7571 36.4152V35.703V35.7022ZM90.5788 33.3019C90.3544 33.1259 90.0318 33.0375 89.6102 33.0375C89.0603 33.0375 88.6017 33.2853 88.233 33.7815C87.8651 34.2777 87.6808 34.953 87.6808 35.8064V39.7279H85.8238V31.533H87.6808V33.2218H87.7133C87.8946 32.6456 88.1718 32.1977 88.5458 31.8774C88.9243 31.5519 89.3458 31.3895 89.8105 31.3895C90.1466 31.3895 90.4027 31.4401 90.5788 31.5413V33.3019ZM96.6943 39.6395C96.3317 39.8208 95.8535 39.9114 95.2612 39.9114C93.6709 39.9114 92.8762 39.1486 92.8762 37.6229V32.9892H91.5072V31.533H92.8762V29.6365L94.7331 29.1085V31.5338H96.6943V32.99H94.7331V37.0874C94.7331 37.573 94.8215 37.9197 94.9975 38.1274C95.1735 38.3351 95.4667 38.4394 95.8776 38.4394C96.1927 38.4394 96.4646 38.3487 96.6943 38.1675V39.6403V39.6395ZM105.595 39.7279H103.738V35.1101C103.738 33.5791 103.197 32.8132 102.113 32.8132C101.548 32.8132 101.081 33.027 100.713 33.4537C100.345 33.8752 100.16 34.4084 100.16 35.0542V39.7279H98.2952V31.533H100.16V32.8933H100.192C100.806 31.8585 101.692 31.3404 102.85 31.3404C103.741 31.3404 104.421 31.6312 104.891 32.2128C105.361 32.7891 105.595 33.6236 105.595 34.7173V39.7271V39.7279ZM114.809 36.1342H109.222C109.243 36.8918 109.475 37.4764 109.918 37.8872C110.367 38.2981 110.98 38.5036 111.759 38.5036C112.635 38.5036 113.438 38.2422 114.168 37.7196V39.2158C113.422 39.6856 112.435 39.9197 111.207 39.9197C109.979 39.9197 109.054 39.5489 108.366 38.8072C107.682 38.0602 107.34 37.0119 107.34 35.6622C107.34 34.3872 107.717 33.3495 108.469 32.5489C109.227 31.743 110.167 31.3404 111.287 31.3404C112.407 31.3404 113.275 31.7007 113.889 32.4205C114.502 33.141 114.809 34.141 114.809 35.4212V36.1335V36.1342ZM113.016 34.8223C113.011 34.1554 112.853 33.638 112.544 33.2702C112.234 32.8963 111.808 32.7098 111.263 32.7098C110.718 32.7098 110.275 32.9046 109.902 33.2943C109.534 33.6841 109.307 34.1931 109.222 34.823H113.016V34.8223ZM121.333 33.3019C121.109 33.1259 120.786 33.0375 120.365 33.0375C119.815 33.0375 119.355 33.2853 118.988 33.7815C118.62 34.2777 118.435 34.953 118.435 35.8064V39.7279H116.578V31.533H118.435V33.2218H118.467C118.649 32.6456 118.926 32.1977 119.3 31.8774C119.679 31.5519 120.1 31.3895 120.564 31.3895C120.9 31.3895 121.157 31.4401 121.333 31.5413V33.3019Z" fill="black"/>
<path d="M50.177 12.0364V17.5568H49.2198V13.2298H49.2047L47.4928 17.5568H46.8582L45.104 13.2298H45.0927V17.5568H44.208V12.0364H45.5807L47.1649 16.1278H47.1876L48.8617 12.0364H50.1777H50.177ZM50.9778 12.4556C50.9778 12.3008 51.0337 12.1732 51.1447 12.0682C51.2558 11.9647 51.3888 11.9126 51.5429 11.9126C51.7076 11.9126 51.8428 11.9662 51.9501 12.0727C52.0574 12.1784 52.111 12.3068 52.111 12.4564C52.111 12.6059 52.0558 12.7351 51.9463 12.8371C51.8368 12.939 51.7015 12.9919 51.5429 12.9919C51.3842 12.9919 51.2505 12.9398 51.141 12.8363C51.0322 12.7328 50.9778 12.6067 50.9778 12.4571V12.4556ZM52.0037 17.5568H51.073V13.5991H52.0037V17.5568ZM54.8269 16.8793C54.9652 16.8793 55.1178 16.8476 55.2855 16.7834C55.4524 16.7192 55.6058 16.6354 55.7463 16.5289V17.3952C55.5983 17.4798 55.4298 17.5432 55.2409 17.5878C55.052 17.6316 54.845 17.6528 54.6192 17.6528C54.0367 17.6528 53.5645 17.4685 53.1996 17.1006C52.8355 16.7328 52.6534 16.2623 52.6534 15.6898C52.6534 15.0531 52.84 14.5296 53.211 14.1165C53.5827 13.7049 54.11 13.4979 54.7914 13.4979C54.9667 13.4979 55.1427 13.5206 55.3202 13.5659C55.4993 13.6105 55.6406 13.6633 55.7456 13.7215V14.615C55.6028 14.51 55.4555 14.4284 55.3051 14.371C55.1548 14.3136 55.0014 14.2842 54.8458 14.2842C54.4794 14.2842 54.1833 14.4043 53.9574 14.6422C53.7315 14.8809 53.6189 15.2034 53.6189 15.6082C53.6189 16.013 53.7277 16.3197 53.9445 16.5432C54.1613 16.7668 54.4552 16.8778 54.8269 16.8778M58.395 13.5342C58.469 13.5342 58.537 13.5395 58.5952 13.5493C58.6541 13.5599 58.7047 13.5719 58.7455 13.5878V14.5312C58.6972 14.4957 58.6254 14.4609 58.5325 14.4292C58.4396 14.3975 58.3255 14.3809 58.1918 14.3809C57.9629 14.3809 57.7702 14.4768 57.6131 14.6694C57.4544 14.862 57.3766 15.1588 57.3766 15.5584V17.5568H56.4459V13.5991H57.3766V14.223H57.3917C57.4764 14.007 57.6048 13.8386 57.7763 13.717C57.9485 13.5954 58.154 13.5342 58.3958 13.5342M58.7969 15.6361C58.7969 14.9821 58.9805 14.4632 59.3507 14.081C59.7193 13.6988 60.2331 13.507 60.8888 13.507C61.5068 13.507 61.9895 13.6913 62.3363 14.0591C62.6838 14.4269 62.8576 14.9239 62.8576 15.5516C62.8576 16.1792 62.6725 16.7041 62.3038 17.0833C61.9351 17.4632 61.432 17.6535 60.7959 17.6535C60.1598 17.6535 59.6967 17.473 59.3363 17.1127C58.976 16.7525 58.7962 16.2608 58.7962 15.6369M59.7662 15.6067C59.7662 16.0206 59.8591 16.3363 60.0472 16.5538C60.2338 16.7721 60.502 16.8809 60.8518 16.8809C61.2016 16.8809 61.4479 16.7721 61.6239 16.5538C61.8014 16.3355 61.8898 16.0123 61.8898 15.584C61.8898 15.1558 61.7977 14.8363 61.6156 14.6195C61.4328 14.402 61.1751 14.294 60.8442 14.294C60.5133 14.294 60.2391 14.408 60.0502 14.6354C59.8614 14.8627 59.7677 15.186 59.7677 15.6082M64.2439 14.6407C64.2439 14.7751 64.2862 14.8786 64.37 14.9549C64.4546 15.0304 64.642 15.1263 64.9313 15.2411C65.303 15.3907 65.5644 15.5584 65.714 15.7434C65.8644 15.93 65.9384 16.155 65.9384 16.4194C65.9384 16.791 65.7956 17.0901 65.5093 17.3167C65.223 17.5425 64.8362 17.655 64.3504 17.655C64.1857 17.655 64.0044 17.6361 63.8065 17.5946C63.607 17.5553 63.4385 17.504 63.301 17.4428V16.5266C63.4695 16.6445 63.6523 16.7389 63.8472 16.8076C64.0429 16.8763 64.2189 16.9111 64.3783 16.9111C64.5891 16.9111 64.7432 16.8816 64.843 16.8227C64.9427 16.7638 64.9925 16.6641 64.9925 16.5259C64.9925 16.3982 64.9404 16.2895 64.8369 16.2003C64.7334 16.112 64.537 16.01 64.2469 15.8937C63.9039 15.7494 63.6599 15.5886 63.5163 15.408C63.3736 15.2275 63.3003 15.0002 63.3003 14.723C63.3003 14.3665 63.4423 14.0727 63.7256 13.8438C64.0089 13.6135 64.3768 13.4987 64.8271 13.4987C64.9653 13.4987 65.121 13.5138 65.2932 13.5448C65.464 13.5757 65.6082 13.615 65.7238 13.6648V14.55C65.6014 14.4685 65.4572 14.3967 65.2932 14.3378C65.1285 14.2789 64.9661 14.2494 64.8044 14.2494C64.6269 14.2494 64.4902 14.2842 64.3912 14.3529C64.293 14.4216 64.2431 14.5176 64.2431 14.6377M66.3395 15.6361C66.3395 14.9821 66.5246 14.4632 66.8933 14.081C67.262 13.6988 67.7757 13.507 68.4314 13.507C69.0494 13.507 69.5322 13.6913 69.8789 14.0591C70.2264 14.4269 70.3994 14.9239 70.3994 15.5516C70.3994 16.1792 70.2144 16.7041 69.8457 17.0833C69.477 17.4632 68.9739 17.6535 68.3378 17.6535C67.7017 17.6535 67.2386 17.473 66.8782 17.1127C66.5178 16.7525 66.338 16.2608 66.338 15.6369M67.3088 15.6067C67.3088 16.0206 67.4017 16.3363 67.5898 16.5538C67.7772 16.7721 68.0446 16.8809 68.3944 16.8809C68.7442 16.8809 68.9905 16.7721 69.168 16.5538C69.3456 16.3355 69.434 16.0123 69.434 15.584C69.434 15.1558 69.3418 14.8363 69.1597 14.6195C68.9761 14.402 68.7193 14.294 68.3884 14.294C68.0575 14.294 67.7833 14.408 67.5944 14.6354C67.4055 14.8627 67.3118 15.186 67.3118 15.6082M73.4916 14.3635H72.1053V17.5591H71.1632V14.3635H70.5022V13.6022H71.1632V13.0516C71.1632 12.6361 71.2985 12.2955 71.5689 12.0297C71.8394 11.7638 72.1854 11.6309 72.6092 11.6309C72.7218 11.6309 72.8222 11.6377 72.9091 11.649C72.996 11.6603 73.0738 11.6784 73.1403 11.7011V12.5062C73.1093 12.4881 73.0564 12.467 72.9779 12.4413C72.9016 12.4156 72.8132 12.4028 72.7119 12.4028C72.5163 12.4028 72.3675 12.4639 72.2624 12.5855C72.1582 12.7071 72.1053 12.8884 72.1053 13.1263V13.6044H73.4916V12.7147L74.4261 12.43V13.6044H75.3682V14.3658H74.4261V16.217C74.4261 16.4609 74.4707 16.6324 74.5591 16.7336C74.6475 16.8333 74.7865 16.8846 74.9769 16.8846C75.0305 16.8846 75.0955 16.8718 75.171 16.8461C75.2466 16.8204 75.313 16.7902 75.3689 16.754V17.5244C75.31 17.5576 75.2118 17.5886 75.0743 17.6165C74.9376 17.6445 74.8023 17.6588 74.6686 17.6588C74.2765 17.6588 73.9819 17.5538 73.7862 17.3454C73.5898 17.1361 73.4923 16.8212 73.4923 16.3997V14.3665L73.4908 14.3642L73.4916 14.3635Z" fill="#737373"/>
<path d="M36.6277 10.1963H32.2588V14.5686H36.6277V10.1963Z" fill="#F25022"/>
<path d="M41.4504 10.1963H37.0815V14.5686H41.4504V10.1963Z" fill="#7FBA00"/>
<path d="M36.6277 15.0244H32.2588V19.3968H36.6277V15.0244Z" fill="#00A4EF"/>
<path d="M41.4504 15.0244H37.0815V19.3968H41.4504V15.0244Z" fill="#FFB900"/>
</svg>
