<svg width="119" height="31" viewBox="0 0 119 31" fill="none" xmlns="http://www.w3.org/2000/svg">
<path d="M16.514 13.3649L11.6071 4.9958L11.3082 5.49396H9.36538L8.49361 4.12402C7.37275 4.44783 7.49729 4.42292 6.37643 4.74672L6.40134 6.36574C5.67901 6.83899 5.47975 6.96353 4.75742 7.41187L3.31276 6.71445C2.54061 7.58623 2.64024 7.5115 1.8681 8.38328L2.76478 9.72831C2.41607 10.5005 2.31644 10.7246 1.94282 11.4968L0.323803 11.696C0.149448 12.8667 0.174356 12.7422 0 13.8879L1.49448 14.5355C1.61902 15.3824 1.64392 15.6315 1.76846 16.4784L0.523067 17.4996C1.02123 18.5706 0.971409 18.4461 1.44466 19.5171L3.03877 19.2431C3.58674 19.8907 3.7611 20.0651 4.30907 20.7127L3.81091 22.257C4.78232 22.8797 4.68269 22.8299 5.67901 23.4526L6.87459 22.3566C7.64674 22.5808 7.89582 22.6555 8.61815 22.8797C8.66796 22.8797 8.69287 22.9046 8.74269 22.9046L8.89213 23.5024L9.14121 24.4738H11.358L11.7815 22.9046C12.6034 22.6555 12.8276 22.6057 13.6495 22.3566L14.8451 23.4526C15.5675 23.0042 15.692 22.9046 16.0905 22.6555C16.24 22.5559 16.4392 22.4314 16.6883 22.257L16.1902 20.7127C16.7381 20.0651 16.9125 19.8907 17.4605 19.2431L18.3821 19.3926L19.0546 19.5171C19.2787 19.0439 19.3784 18.7948 19.478 18.5955L16.514 13.3649ZM10.3119 17.4498C10.1873 17.4498 10.0628 17.4498 9.93827 17.4249C8.36907 17.2505 7.17349 15.9304 7.17349 14.3114C7.17349 12.5927 8.56833 11.173 10.3119 11.173C11.5324 11.173 12.6034 11.8704 13.1265 12.9165C13.3257 13.34 13.4503 13.8132 13.4503 14.3114C13.4503 16.0549 12.0305 17.4498 10.3119 17.4498Z" fill="#BCD530"/>
<g style="mix-blend-mode:multiply">
<path d="M22.9154 24.2498L19.5778 18.5957L16.5141 13.365H15.443L14.7705 12.2939C13.8987 12.543 13.9984 12.5181 13.1266 12.7921V12.9416L13.1515 14.0375C12.6035 14.4111 12.4292 14.5108 11.8812 14.8595L10.7354 14.3115C10.1376 15.0089 10.2124 14.9342 9.61458 15.6067L10.312 16.6528C10.1626 17.0015 10.0629 17.2008 9.96329 17.4001C9.88856 17.5744 9.78893 17.7488 9.6893 18.0228L8.4439 18.1722C8.31936 19.0689 8.31936 18.9693 8.19482 19.8909L9.3655 20.389C9.46513 21.0366 9.49004 21.2359 9.58967 21.8835L8.61826 22.6806C8.64317 22.7553 8.66808 22.8051 8.69298 22.8549C8.84243 23.1538 8.91715 23.3282 8.99188 23.4776C9.0666 23.652 9.16623 23.8263 9.34059 24.2248L10.586 24.0256C10.7354 24.1999 10.8351 24.3245 10.9596 24.449C11.1589 24.6732 11.3083 24.8475 11.6072 25.1713L11.2336 26.3669C12.0057 26.8651 11.9061 26.8153 12.6783 27.2885L13.6248 26.4417C14.2724 26.6409 14.4467 26.6907 15.0943 26.8651L15.4181 28.0856C16.3397 28.0856 16.2401 28.0856 17.1368 28.0856L17.4606 26.8651C18.1082 26.6658 18.2825 26.616 18.9301 26.4417L19.8766 27.2885C20.6488 26.7904 20.5492 26.8402 21.3213 26.3669L20.9477 25.1713C21.396 24.6732 21.4957 24.5237 21.944 24.0256L22.9154 24.2498ZM16.1903 22.6806C14.8203 22.6556 13.7493 21.5846 13.7493 20.2396C13.7493 18.8945 14.8452 17.7986 16.1903 17.7986C17.2364 17.7986 18.158 18.4711 18.4818 19.4176C18.5814 19.6667 18.6312 19.9407 18.6312 20.2396C18.6312 21.5846 17.5353 22.6806 16.1903 22.6806Z" fill="#FF1820"/>
</g>
<path d="M8.80121 -0.000132327L8.58643 0.125977L26.3299 30.3457L26.5447 30.2196L8.80121 -0.000132327Z" fill="#BCD530"/>
<path d="M18.6315 7.04837C18.3575 6.47548 17.9839 5.97732 17.4608 5.60371C17.0623 5.30481 16.589 5.10555 16.0659 4.9561C15.5429 4.83156 14.8206 4.75684 13.899 4.75684H11.5825L13.4008 7.84542V6.30113H14.422C15.3685 6.30113 16.0659 6.5253 16.5143 6.94873C16.9626 7.39708 17.1619 8.06959 17.1619 9.01609C17.1619 9.96259 16.9377 10.6351 16.5143 11.0835C16.2901 11.3076 15.9912 11.482 15.6176 11.5816L16.4396 13.0014C16.8132 12.8768 17.137 12.7025 17.4359 12.4783C17.959 12.1047 18.3575 11.6065 18.6315 11.0336C18.9055 10.4608 19.03 9.78824 19.03 9.01609C19.03 8.29376 18.8805 7.62125 18.6315 7.04837Z" fill="#242424"/>
<path d="M20.5742 13.2754V4.75684H22.3925V13.2754H20.5742Z" fill="#242424"/>
<path d="M28.5694 8.79196H32.455C32.455 8.84177 32.455 8.89159 32.4799 8.96631C32.4799 9.01613 32.4799 9.11576 32.4799 9.2403C32.4799 10.5106 32.1063 11.5567 31.384 12.3538C30.6617 13.1508 29.7152 13.5494 28.5445 13.5494C27.2244 13.5494 26.1284 13.1259 25.2815 12.2791C24.4347 11.4322 23.9863 10.3612 23.9863 9.06594C23.9863 7.77073 24.4098 6.7246 25.2815 5.87773C26.1533 5.03086 27.2244 4.60742 28.5445 4.60742C29.2419 4.60742 29.8646 4.75687 30.4624 5.05577C31.0353 5.35466 31.5583 5.7781 32.0067 6.35098L30.7862 7.24766C30.4873 6.87404 30.1635 6.60006 29.8148 6.4257C29.4661 6.25135 29.0925 6.17662 28.6441 6.17662C27.7972 6.17662 27.1247 6.45061 26.6266 6.97368C26.1284 7.49674 25.8793 8.19417 25.8793 9.06594C25.8793 9.93772 26.1284 10.6351 26.6515 11.1582C27.1745 11.6813 27.8221 11.9553 28.6441 11.9553C29.2419 11.9553 29.7152 11.8058 30.0888 11.5318C30.4624 11.2578 30.6367 10.8842 30.6367 10.4359V10.3362H28.5943V8.79196H28.5694Z" fill="#242424"/>
<path d="M33.9497 13.2754V4.75684H35.768V13.2754H33.9497Z" fill="#242424"/>
<path d="M40.8988 6.30113V13.2754H39.0805V6.30113H36.9883V4.75684H42.9911V6.30113H40.8988Z" fill="#242424"/>
<path d="M42.5181 13.2754L45.7561 4.75684H47.8484L51.1362 13.2754H49.0689L48.3714 11.4571H45.0587L44.4609 13.2754H42.5181ZM47.948 10.0373L47.0015 7.27254C46.9766 7.19781 46.9517 7.04837 46.9019 6.8491C46.852 6.64984 46.8022 6.40076 46.7773 6.12677C46.7275 6.40076 46.6777 6.64984 46.6279 6.87401C46.5781 7.09818 46.5532 7.24763 46.5282 7.32235L45.5817 10.0373H47.948Z" fill="#242424"/>
<path d="M52.0327 13.2754V4.75684H53.851V11.7311H56.7652V13.2754H52.0327Z" fill="#242424"/>
<path d="M60.5015 4.68066H61.448L64.6362 12.3025H64.6611L67.8742 4.68066H68.8207V13.3237H68.0486V6.22496H67.9988L65.0098 13.3237H64.2875L61.2985 6.22496H61.2736V13.3237H60.5015V4.68066Z" fill="#737373"/>
<path d="M73.03 4.68066H73.8271L77.09 13.3237H76.2183L75.2468 10.6835H71.5854L70.614 13.3237H69.7422L73.03 4.68066ZM71.8594 9.96115H74.9978L73.4286 5.67698H73.4037L71.8594 9.96115Z" fill="#737373"/>
<path d="M78.0366 4.68066H81.0754C82.7691 4.68066 83.8402 5.67698 83.8402 7.19637C83.8402 8.41685 83.1428 9.33845 81.997 9.63734L84.0893 13.2988H83.1427L81.1501 9.76188C81.1003 9.76188 81.0256 9.76188 80.9758 9.76188H78.8586V13.2988H78.0366V4.68066ZM81.0256 9.06446C82.271 9.06446 83.0182 8.39195 83.0182 7.24618C83.0182 6.10042 82.2461 5.4279 81.0007 5.4279H78.8586V9.06446H81.0256Z" fill="#737373"/>
<path d="M85.1855 4.68066H86.0075V9.189H86.0324L90.0426 4.68066H91.0638L87.6265 8.49158L91.4125 13.3237H90.3664L87.0536 9.08937L85.9826 10.2351V13.3237H85.1855V4.68066Z" fill="#737373"/>
<path d="M92.2842 4.68066H97.4899V5.4279H93.0812V8.54139H97.2658V9.26372H93.0812V12.5765H97.4899V13.3237H92.2842V4.68066Z" fill="#737373"/>
<path d="M101.176 5.4279H98.3364V4.68066H104.862V5.4279H101.998V13.3237H101.176V5.4279Z" fill="#737373"/>
<path d="M105.884 4.68066H111.09V5.4279H106.681V8.54139H110.865V9.26372H106.681V12.5765H111.09V13.3237H105.884V4.68066Z" fill="#737373"/>
<path d="M112.509 4.68066H115.548C117.242 4.68066 118.313 5.67698 118.313 7.19637C118.313 8.41685 117.615 9.33845 116.47 9.63734L118.562 13.2988H117.615L115.623 9.76188C115.573 9.76188 115.498 9.76188 115.448 9.76188H113.331V13.2988H112.509V4.68066ZM115.473 9.06446C116.719 9.06446 117.466 8.39195 117.466 7.24618C117.466 6.10042 116.694 5.4279 115.448 5.4279H113.306V9.06446H115.473Z" fill="#737373"/>
<path d="M50.2914 25.3383C50.0921 25.438 49.8929 25.5127 49.7185 25.5625C49.5192 25.6123 49.32 25.6372 49.0958 25.6372C48.224 25.6372 47.5515 25.2885 47.1281 24.5662C46.6797 23.8439 46.4805 22.7728 46.4805 21.3033C46.4805 19.8337 46.7046 18.7128 47.1779 17.9407C47.6511 17.1934 48.3237 16.7949 49.2452 16.7949C49.4445 16.7949 49.6438 16.8198 49.8181 16.8447C49.9925 16.8946 50.1668 16.9444 50.3163 17.0191V18.115C50.1419 18.0403 49.9925 17.9656 49.843 17.9407C49.6936 17.8909 49.5441 17.8909 49.4196 17.8909C48.7969 17.8909 48.3486 18.1649 48.0746 18.7128C47.8006 19.2608 47.6511 20.1077 47.6511 21.3033C47.6511 22.3992 47.7757 23.2212 48.0497 23.7442C48.3237 24.2673 48.7471 24.5413 49.2951 24.5413C49.4445 24.5413 49.6189 24.5164 49.7932 24.4666C49.9676 24.4167 50.1419 24.342 50.3412 24.2175V25.3383H50.2914Z" fill="#767676"/>
<path d="M51.3125 25.5132V16.9199H54.7498V17.9661H52.4583V20.5316H54.5505V21.5528H52.4583V24.467H54.7498V25.5381H51.3125V25.5132Z" fill="#767676"/>
<path d="M57.1409 21.3286V25.5381H55.9702V16.9199H57.3651C58.2867 16.9199 58.9592 17.0943 59.3577 17.443C59.7562 17.7917 59.9555 18.3646 59.9555 19.1616C59.9555 19.8092 59.8309 20.3074 59.557 20.6561C59.283 21.0048 58.8844 21.229 58.3365 21.2788L60.3789 25.5132H59.1335L57.1658 21.3286H57.1409ZM57.1409 20.6561H57.4896C57.9629 20.6561 58.2867 20.5565 58.4859 20.3323C58.6852 20.1081 58.7848 19.7345 58.7848 19.1616C58.7848 18.6884 58.6852 18.3646 58.5108 18.1902C58.3116 18.0159 57.9628 17.9162 57.4647 17.9162H57.1409V20.6561Z" fill="#767676"/>
<path d="M62.1727 25.5132V17.991H60.5786V16.9199H64.9375V17.991H63.3434V25.5381H62.1727V25.5132Z" fill="#767676"/>
<path d="M65.834 25.5132V16.9199H67.0047V25.5381H65.834V25.5132Z" fill="#767676"/>
<path d="M68.5488 25.5132V16.9199H72.0858V17.9661H69.7195V20.5316H71.8865V21.5528H69.7195V25.5381H68.5488V25.5132Z" fill="#767676"/>
<path d="M73.1816 25.5132V16.9199H74.3523V25.5381H73.1816V25.5132Z" fill="#767676"/>
<path d="M75.8721 25.5132V16.9199H79.3094V17.9661H77.0427V20.5316H79.135V21.5528H77.0427V24.467H79.3343V25.5381H75.8721V25.5132Z" fill="#767676"/>
<path d="M80.5298 25.5132V16.9199H82.0741C83.2448 16.9199 84.0667 17.2437 84.54 17.8913C85.0132 18.5389 85.2623 19.6349 85.2623 21.229C85.2623 22.8231 85.0132 23.9191 84.54 24.5667C84.0667 25.2143 83.2448 25.5381 82.0741 25.5381H80.5298V25.5132ZM81.7254 24.4172H82.3232C82.9708 24.4172 83.444 24.193 83.6931 23.7198C83.9671 23.2465 84.0916 22.4246 84.0916 21.2041C84.0916 20.0085 83.9671 19.1865 83.6931 18.7133C83.4191 18.24 82.9708 18.0159 82.3232 18.0159H81.7254V24.4172Z" fill="#767676"/>
<path d="M89.1729 25.7374V16.6211H90.1194C91.4146 16.6211 92.5852 16.7456 92.5852 18.9873C92.5852 20.7558 91.9625 21.3785 90.2439 21.3785H90.0197V25.7374H89.1729ZM90.0197 20.6064H90.3435C91.5391 20.6064 91.6636 20.1829 91.7135 18.9873C91.7135 17.742 91.3647 17.3932 90.1941 17.3932H90.0197V20.6064Z" fill="#767676"/>
<path d="M96.7446 25.7374H95.848L95.4992 23.8693H93.5564L93.2326 25.7374H92.3359L94.1293 16.6211H94.9264L96.7446 25.7374ZM95.3498 23.1221L94.752 19.635C94.6524 19.0123 94.6026 18.3896 94.5278 17.7669H94.478C94.4033 18.3896 94.3286 19.0123 94.2289 19.635L93.7059 23.1221H95.3498Z" fill="#767676"/>
<path d="M97.4668 25.7374V16.6211H98.3635C99.6338 16.6211 100.854 16.7207 100.854 18.9375C100.854 20.1082 100.605 21.2291 99.1356 21.2789L101.153 25.7125H100.256L98.3137 21.254H98.2888V25.7125H97.4668V25.7374ZM98.3137 20.5815H98.6126C99.8081 20.5815 99.9825 20.1829 99.9825 18.9624C99.9825 17.5178 99.5591 17.3683 98.4631 17.3683H98.2888V20.5815H98.3137Z" fill="#767676"/>
<path d="M104.79 17.3932H103.42V25.7374H102.573V17.3932H101.203V16.6211H104.79V17.3932Z" fill="#767676"/>
<path d="M109.398 25.7374H108.651L106.608 19.61C106.484 19.2364 106.409 18.813 106.284 18.4394H106.235C106.259 19.0372 106.334 19.61 106.334 20.2078V25.7374H105.587V16.6211H106.334L108.426 22.9477C108.526 23.2715 108.626 23.5704 108.7 23.8942H108.725C108.7 23.4957 108.651 23.0972 108.651 22.6986V16.6211H109.398V25.7374Z" fill="#767676"/>
<path d="M113.732 17.3932H111.715V20.6064H113.682V21.3785H111.715V24.9653H113.732V25.7374H110.868V16.6211H113.732V17.3932Z" fill="#767676"/>
<path d="M114.952 25.7374V16.6211H115.849C117.119 16.6211 118.34 16.7207 118.34 18.9375C118.34 20.1082 118.091 21.2291 116.621 21.2789L118.639 25.7125H117.742L115.799 21.254H115.774V25.7125H114.952V25.7374ZM115.799 20.5815H116.098C117.293 20.5815 117.468 20.1829 117.468 18.9624C117.468 17.5178 117.044 17.3683 115.948 17.3683H115.774V20.5815H115.799Z" fill="#767676"/>
<path d="M118.639 14.8779H18.3843V15.6472H118.639V14.8779Z" fill="#BCD530"/>
</svg>
