<svg width="34" height="34" viewBox="0 0 34 34" fill="none" xmlns="http://www.w3.org/2000/svg">
<g clip-path="url(#clip0_2169_51203)">
<path d="M17.261 33.3716C26.3021 33.3716 33.6314 26.0423 33.6314 17.0012C33.6314 7.96012 26.3021 0.630859 17.261 0.630859C8.21989 0.630859 0.890625 7.96012 0.890625 17.0012C0.890625 26.0423 8.21989 33.3716 17.261 33.3716Z" fill="#151527"/>
<path d="M17.2578 1.25926C25.9467 1.25926 32.9986 8.31111 32.9986 17C32.9986 25.6889 25.9467 32.7407 17.2578 32.7407C8.56892 32.7407 1.51707 25.6889 1.51707 17C1.51707 8.31111 8.56892 1.25926 17.2578 1.25926ZM17.2578 0C7.87633 0 0.257812 7.61852 0.257812 17C0.257812 26.3815 7.87633 34 17.2578 34C26.6393 34 34.2578 26.3815 34.2578 17C34.2578 7.61852 26.6393 0 17.2578 0Z" fill="#5B707F"/>
<path d="M18.1101 8.87012C13.9982 8.87074 11.8125 11.5052 11.8125 14.3777C11.8125 15.7096 12.5569 17.3715 13.7488 17.8984C14.0888 18.0515 14.0438 17.8646 14.3363 16.7459C14.3594 16.6527 14.3475 16.5721 14.2725 16.4852C12.5688 14.5146 13.94 10.4633 17.867 10.4633C23.5502 10.4633 22.4883 18.3271 18.8557 18.3271C17.9195 18.3271 17.222 17.5921 17.4426 16.6827C17.7101 15.5996 18.2338 14.4352 18.2338 13.6546C18.2338 11.687 15.3025 11.9789 15.3025 14.5858C15.3025 15.3915 15.5876 15.9352 15.5876 15.9352C15.5876 15.9352 14.6444 19.7453 14.4694 20.4572C14.1732 21.6622 14.5094 23.6128 14.5388 23.781C14.5569 23.8735 14.6607 23.9028 14.7188 23.8266C14.8119 23.7047 15.9519 22.0784 16.2713 20.9028C16.3876 20.4747 16.8644 18.7371 16.8644 18.7371C17.1788 19.3046 18.0851 19.7796 19.0507 19.7796C21.9233 19.7796 23.9995 17.2546 23.9995 14.1214C23.9895 11.1176 21.4189 8.87012 18.1101 8.87012Z" fill="#99999B"/>
</g>
<defs>
<clipPath id="clip0_2169_51203">
<rect width="34" height="34" fill="white"/>
</clipPath>
</defs>
</svg>
