<svg width="36" height="34" viewBox="0 0 36 34" fill="none" xmlns="http://www.w3.org/2000/svg">
<g clip-path="url(#clip0_2169_51174)">
<path d="M18.263 33.3716C27.836 33.3716 35.5964 26.0423 35.5964 17.0012C35.5964 7.96012 27.836 0.630859 18.263 0.630859C8.69009 0.630859 0.929688 7.96012 0.929688 17.0012C0.929688 26.0423 8.69009 33.3716 18.263 33.3716Z" fill="#151527"/>
<path d="M18.2578 1.25926C27.4578 1.25926 34.9245 8.31111 34.9245 17C34.9245 25.6889 27.4578 32.7407 18.2578 32.7407C9.05781 32.7407 1.59115 25.6889 1.59115 17C1.59115 8.31111 9.05781 1.25926 18.2578 1.25926ZM18.2578 0C8.32448 0 0.257812 7.61852 0.257812 17C0.257812 26.3815 8.32448 34 18.2578 34C28.1911 34 36.2578 26.3815 36.2578 17C36.2578 7.61852 28.1911 0 18.2578 0Z" fill="#5B707F"/>
<path fill-rule="evenodd" clip-rule="evenodd" d="M26.5964 17.5979C26.5964 18.8571 26.4297 20.1479 26.4297 20.1479C26.4297 20.1479 26.263 21.2182 25.763 21.7219C25.1297 22.3516 24.4297 22.3516 24.0964 22.3831C21.763 22.5405 18.263 22.5405 18.263 22.5405C18.263 22.5405 13.9297 22.509 12.5964 22.3831C12.2297 22.3201 11.3964 22.3516 10.763 21.7219C10.263 21.2497 10.0964 20.1479 10.0964 20.1479C10.0964 20.1479 9.92969 18.8886 9.92969 17.5979V16.4016C9.92969 15.1423 10.0964 13.8516 10.0964 13.8516C10.0964 13.8516 10.263 12.7812 10.763 12.2775C11.3964 11.6479 12.0964 11.6479 12.4297 11.6164C14.763 11.459 18.263 11.459 18.263 11.459C18.263 11.459 21.763 11.459 24.0964 11.6164C24.4297 11.6479 25.1297 11.6479 25.763 12.2775C26.263 12.7497 26.4297 13.8516 26.4297 13.8516C26.4297 13.8516 26.5964 15.1108 26.5964 16.4016V17.5979Z" fill="#99999B"/>
<path fill-rule="evenodd" clip-rule="evenodd" d="M16.5234 19.0463L21.0234 16.8426L16.5234 14.6074V19.0463Z" fill="#151527"/>
</g>
<defs>
<clipPath id="clip0_2169_51174">
<rect width="36" height="34" fill="white"/>
</clipPath>
</defs>
</svg>
