<svg width="15" height="9" viewBox="0 0 15 9" fill="none" xmlns="http://www.w3.org/2000/svg">
<path d="M0.278439 1.59684L6.84087 8.15921C7.02624 8.34479 7.24593 8.4375 7.5 8.4375C7.75407 8.4375 7.97371 8.34479 8.15929 8.15921L14.7217 1.59684C14.9073 1.41126 15 1.19157 15 0.937706C15 0.683842 14.9073 0.463995 14.7217 0.278574C14.5359 0.0929994 14.3163 0.000237405 14.0624 0.000237383L0.937622 0.000236236C0.683707 0.000236213 0.463912 0.0929982 0.27844 0.278573C0.0930701 0.463942 1.01678e-06 0.683789 9.83479e-07 0.937704C9.50182e-07 1.19162 0.09307 1.41126 0.278439 1.59684Z" fill="white"/>
</svg>
