<?xml version="1.0" encoding="utf-8"?>
<!-- Generator: Adobe Illustrator 25.0.0, SVG Export Plug-In . SVG Version: 6.00 Build 0)  -->
<svg version="1.1" id="Layer_1" xmlns="http://www.w3.org/2000/svg" xmlns:xlink="http://www.w3.org/1999/xlink" x="0px" y="0px"
	 viewBox="0 0 406 252" style="enable-background:new 0 0 406 252;" xml:space="preserve">
<style type="text/css">
	.st0{fill:none;}
</style>
<g>
	<g>
		<path d="M318.4,90.6c0.9-1.9,1.5-2.2,1.5-2.2c0.4-0.1,1.1-0.2,1.8-0.2c1,0,1.9,0.1,2.6,0.3c-1.3,1.9-2.5,2.5-4,2.9
			c-0.2,0-0.4,0.1-0.5,0.2c-0.6,0.1-1.3,0.2-2,0.2L318.4,90.6z"/>
	</g>
	<g>
		<path class="st0" d="M214.5,115.7c-2.7-1.8-5.7-3.5-8.9-3.5c-1.9,0-4.7,0.9-6.9,2.2c-8.4,5.5-14.7,19.5-13.3,25.9
			c0.5,2.1,1.7,2.9,4,2.9c10.5,0,19.7-13.7,25.6-25.2C215.6,117.2,215.3,116.2,214.5,115.7z"/>
	</g>
	<g>
		<path class="st0" d="M214.5,115.7c-2.7-1.8-5.7-3.5-8.9-3.5c-1.9,0-4.7,0.9-6.9,2.2c-8.4,5.5-14.7,19.5-13.3,25.9
			c0.5,2.1,1.7,2.9,4,2.9c10.5,0,19.7-13.7,25.6-25.2C215.6,117.2,215.3,116.2,214.5,115.7z"/>
	</g>
	<g>
		<path class="st0" d="M214.5,115.7c-2.7-1.8-5.7-3.5-8.9-3.5c-1.9,0-4.7,0.9-6.9,2.2c-8.4,5.5-14.7,19.5-13.3,25.9
			c0.5,2.1,1.7,2.9,4,2.9c10.5,0,19.7-13.7,25.6-25.2C215.6,117.2,215.3,116.2,214.5,115.7z"/>
	</g>
	<g>
		<path class="st0" d="M359.9,113.7c-2.2,0-4.9,1.2-8.2,3.5c-1.8,1.4-3.5,3-5.3,5c-0.2,0.3-0.4,0.6-0.4,0.9
			c-0.1,0.4-0.2,0.7-0.4,0.9c-0.4,0.1-0.7,0.2-0.9,0.5c-0.2,0.2-0.5,0.5-0.7,0.8c-5.5,7.1-11.2,17.9-9.3,25.2
			c0.8,2.6,2.2,3.2,3.5,3.5c0.3,0.1,0.8,0.2,1.5,0.2c3.2,0,10.5-1.6,23.6-12.5c0.4-0.4,0.7-0.9,0.7-1.4v-0.3
			c1.2-6.1,1.7-10.7,1.7-14.4c0-5.4-1-9.1-3-10.9C361.6,113.7,360.8,113.7,359.9,113.7z"/>
	</g>
	<g>
		<path class="st0" d="M214.5,115.7c-2.7-1.8-5.7-3.5-8.9-3.5c-1.9,0-4.7,0.9-6.9,2.2c-8.4,5.5-14.7,19.5-13.3,25.9
			c0.5,2.1,1.7,2.9,4,2.9c10.5,0,19.7-13.7,25.6-25.2C215.6,117.2,215.3,116.2,214.5,115.7z"/>
	</g>
	<g>
		<path class="st0" d="M214.5,115.7c-2.7-1.8-5.7-3.5-8.9-3.5c-1.9,0-4.7,0.9-6.9,2.2c-8.4,5.5-14.7,19.5-13.3,25.9
			c0.5,2.1,1.7,2.9,4,2.9c10.5,0,19.7-13.7,25.6-25.2C215.6,117.2,215.3,116.2,214.5,115.7z"/>
	</g>
	<g>
		<path class="st0" d="M214.5,115.7c-2.7-1.8-5.7-3.5-8.9-3.5c-1.9,0-4.7,0.9-6.9,2.2c-8.4,5.5-14.7,19.5-13.3,25.9
			c0.5,2.1,1.7,2.9,4,2.9c10.5,0,19.7-13.7,25.6-25.2C215.6,117.2,215.3,116.2,214.5,115.7z"/>
	</g>
	<g>
		<path class="st0" d="M214.5,115.7c-2.7-1.8-5.7-3.5-8.9-3.5c-1.9,0-4.7,0.9-6.9,2.2c-8.4,5.5-14.7,19.5-13.3,25.9
			c0.5,2.1,1.7,2.9,4,2.9c10.5,0,19.7-13.7,25.6-25.2C215.6,117.2,215.3,116.2,214.5,115.7z"/>
	</g>
	<g>
		<path class="st0" d="M214.5,115.7c-2.7-1.8-5.7-3.5-8.9-3.5c-1.9,0-4.7,0.9-6.9,2.2c-8.4,5.5-14.7,19.5-13.3,25.9
			c0.5,2.1,1.7,2.9,4,2.9c10.5,0,19.7-13.7,25.6-25.2C215.6,117.2,215.3,116.2,214.5,115.7z"/>
	</g>
	<g>
		<path class="st0" d="M214.5,115.7c-2.7-1.8-5.7-3.5-8.9-3.5c-1.9,0-4.7,0.9-6.9,2.2c-8.4,5.5-14.7,19.5-13.3,25.9
			c0.5,2.1,1.7,2.9,4,2.9c10.5,0,19.7-13.7,25.6-25.2C215.6,117.2,215.3,116.2,214.5,115.7z"/>
	</g>
	<g>
		<path class="st0" d="M359.9,113.7c-2.2,0-4.9,1.2-8.2,3.5c-1.8,1.4-3.5,3-5.3,5c-0.2,0.3-0.4,0.6-0.4,0.9
			c-0.1,0.4-0.2,0.7-0.4,0.9c-0.4,0.1-0.7,0.2-0.9,0.5c-0.2,0.2-0.5,0.5-0.7,0.8c-5.5,7.1-11.2,17.9-9.3,25.2
			c0.8,2.6,2.2,3.2,3.5,3.5c0.3,0.1,0.8,0.2,1.5,0.2c3.2,0,10.5-1.6,23.6-12.5c0.4-0.4,0.7-0.9,0.7-1.4v-0.3
			c1.2-6.1,1.7-10.7,1.7-14.4c0-5.4-1-9.1-3-10.9C361.6,113.7,360.8,113.7,359.9,113.7z"/>
	</g>
	<g>
		<path class="st0" d="M359.9,113.7c-2.2,0-4.9,1.2-8.2,3.5c-1.8,1.4-3.5,3-5.3,5c-0.2,0.3-0.4,0.6-0.4,0.9
			c-0.1,0.4-0.2,0.7-0.4,0.9c-0.4,0.1-0.7,0.2-0.9,0.5c-0.2,0.2-0.5,0.5-0.7,0.8c-5.5,7.1-11.2,17.9-9.3,25.2
			c0.8,2.6,2.2,3.2,3.5,3.5c0.3,0.1,0.8,0.2,1.5,0.2c3.2,0,10.5-1.6,23.6-12.5c0.4-0.4,0.7-0.9,0.7-1.4v-0.3
			c1.2-6.1,1.7-10.7,1.7-14.4c0-5.4-1-9.1-3-10.9C361.6,113.7,360.8,113.7,359.9,113.7z"/>
	</g>
	<g>
		<path class="st0" d="M359.9,113.7c-2.2,0-4.9,1.2-8.2,3.5c-1.8,1.4-3.5,3-5.3,5c-0.2,0.3-0.4,0.6-0.4,0.9
			c-0.1,0.4-0.2,0.7-0.4,0.9c-0.4,0.1-0.7,0.2-0.9,0.5c-0.2,0.2-0.5,0.5-0.7,0.8c-5.5,7.1-11.2,17.9-9.3,25.2
			c0.8,2.6,2.2,3.2,3.5,3.5c0.3,0.1,0.8,0.2,1.5,0.2c3.2,0,10.5-1.6,23.6-12.5c0.4-0.4,0.7-0.9,0.7-1.4v-0.3
			c1.2-6.1,1.7-10.7,1.7-14.4c0-5.4-1-9.1-3-10.9C361.6,113.7,360.8,113.7,359.9,113.7z"/>
	</g>
	<g>
		<path d="M404.9,6.9c0,0-0.1,0-0.1,0c-1.2,0-1.4,0.8-1.5,1.1L372,120.4c-0.2,2.2-0.6,3.9-1,5.2l0,0c-0.5,2.2-2.3,10.9-3.2,11.4
			c-0.9,0.4-0.8-0.7-0.8-0.7c0.9-2.1,1.7-10,1.7-10c0.3-2.8,0.1-4.7-0.2-5.8c0,0,0-0.1,0-0.1c-1-4-2.5-6.6-4.9-8.2
			c-1.1-0.8-2.3-1.1-3.7-1.1c-2.6,0-5.6,1.3-9,3.7c-0.1,0.2-0.3,0.4-0.5,0.5c-3.5,2.7-7.2,6.6-10.4,11.2c-1.4,1.8-3.2,4.2-5.6,7.3
			c-0.1,0.2-0.3,0.3-0.5,0.5l-1.5,2c-6.4,8.1-17.2,21.7-23.9,25.8c-0.3,0.2-0.6,0.3-1,0.3c-0.3,0-0.6-0.1-0.9-0.2
			c-0.6-0.3-1-0.9-1-1.5c-0.5-8.2,5.7-33.2,11.9-52.7c0.1-0.3,0.1-0.6,0-0.8c-0.1-0.3-0.4-0.5-0.8-0.6c-0.1,0-0.2,0-0.2-0.1
			c-0.1-0.1-0.3-0.1-0.4-0.1c-0.4,0-0.8,0.3-1,0.9c-5.6,17.8-12.1,39.7-12.1,51c0,2.6,0.4,4.7,1.2,5.9c0.2,0.3,1.2,0.8,2.8,0.8
			c0.2,0,0.5,0,0.7,0.1c5.1-1.4,15.9-14.4,20.4-19.9c0,0,3.8-6.4,5-6.6c1.2-0.1,0.2,3.8-1.1,8.6c0,1.3,0.2,2.6,0.5,3.6
			c0.8,2.7,2.7,4.8,5,5.5c0.7,0.2,1.5,0.2,2.3,0.2c4.9,0,11.6-2.9,19.2-8.5c0,0,4.1-3.8,5.2-4c0,0,2.2-0.9-0.7,5.5
			s-6.2,22.8-6.2,22.8l-2.8,10.8c0,0.1,0,0.3,0,0.4c0.1,0.1,0.2,0.2,0.3,0.3c0.4,0,0.7,0.1,0.9,0.2c0.4-0.1,1.1-0.6,1.4-1L405.7,8.7
			C405.6,8,405.2,7.1,404.9,6.9z M364,139.9v0.3c0,0.6-0.2,1.1-0.7,1.4c-13.1,10.9-20.4,12.5-23.6,12.5c-0.7,0-1.2-0.1-1.5-0.2
			c-1.3-0.3-2.8-0.9-3.5-3.5c-1.9-7.3,3.7-18.1,9.3-25.2c0.3-0.3,0.5-0.6,0.7-0.8c0.3-0.3,0.6-0.4,0.9-0.5c0.2-0.2,0.4-0.5,0.4-0.9
			c0.1-0.3,0.2-0.7,0.4-0.9c1.7-1.9,3.5-3.6,5.3-5c3.3-2.4,5.9-3.5,8.2-3.5c0.9,0,1.7,0,2.8,1c2,1.8,3,5.4,3,10.9
			C365.7,129.2,365.1,133.8,364,139.9z"/>
	</g>
	<g>
		<path d="M234.7,70.2c-0.2-0.7-1.1-1.3-1.8-1.4c-11.4,2.4-23.1,5.1-35.4,8.4l-28.1,8.8l0,0c-1.5,0.6-2,0.3-2.1-0.3
			c-0.1-0.3,0.2-1.1,0.6-2h0l7.5-19.9l0,0c6.2-17.6,12.3-34.9,18-50.7l3.7-10.4c0-0.1,0-0.1,0.1-0.2c0-0.2-0.3-0.9-0.9-1.4
			c-0.7,0.1-1.5,0.5-1.6,0.8c-0.5,1.2-13.5,37.5-29.5,84.2c-0.2,0.6-0.6,1-1.2,1.2C127,99.1,93.2,113.5,63.2,130.1
			c-1.2,0.7-4.6,3.1-5.3,1.9c-0.2-0.4-0.1-1,0.2-1.6l0,0l5.1-12.9l2.2-5.9l0,0c13.8-40.3,27.4-79.2,38-108.8
			c0.2-0.5,0.1-1.1-0.4-1.5c-0.1,0-0.1-0.1-0.2-0.1c-0.1-0.1-0.2-0.1-0.4-0.1c-0.3,0-0.8,0.2-1,0.4l-45,50.2c-0.3,0.3-0.2,1,0.1,1.5
			c0.3,0.1,0.7,0.1,1.1,0.1c0.3,0,0.4,0,0.5-0.1l32.7-36.4c0,0,4.6-6.8,6.3-7c1.7-0.2,1.9,2.2-3.1,11.5l-6.7,18.9
			c-2.7,7.8-5.7,16.5-8.9,25.8c-5.8,16.7-12.4,35.5-18.7,54.2l-3.6,10.4l-1,3.4c-0.1,0.5-0.4,0.9-0.8,1.1
			c-31.9,18.7-49,34.9-53.5,39.4c0,0-0.1,0.1-0.1,0.1c-0.2,0.2-0.4,0.5-0.4,0.7c0,0,0,0.2,0.2,0.3c0.1,0.1,0.3,0.3,0.3,0.5
			c0.1,0.2,0.5,0.2,0.8,0.2c0.4,0,0.8-0.1,0.9-0.2c0,0,0.1-0.1,0.2-0.1c0.1-0.1,0.4-0.3,0.8-0.7c9.9-9,21.1-17.3,31.2-24.2l0,0
			l15.9-10.8l0,0c0.5-0.4,1.1-0.8,1.5-0.8c0.9-0.1,1.8,0.2,0.8,2.7l0,0l-6.3,18.1c-23.9,73.3-24.9,86.7-23.5,90.2
			c0.2,0.5,0.9,0.5,1.2,0.5h0.9c0.1,0,0.2-0.1,0.2-0.3c0.2-0.3,0.2-0.8,0.1-1.2c-2.9-9.3,18.2-74.2,31.1-112.1
			c0.1-0.4,0.4-0.8,0.8-1c31.3-18,64-32.5,99.7-44.3l0,0c0,0,5.4-2.5,6.1-2.4c0.7,0.2,1,0.6-1.5,6.1l-4.6,13.3l-3.7,11
			c-40.7,120-37.7,127.8-36.7,130.4c0.2,0.5,0.9,0.5,1.2,0.5h0.9c0.1,0,0.2-0.1,0.2-0.3c0.2-0.3,0.2-0.8,0-1.3
			c-3-11.2,28.3-104.7,47.2-159.4c0.2-0.6,0.6-1,1.2-1.2c21.3-6.9,42.8-12.6,65.8-17.3c0.1,0,0.2-0.1,0.3-0.1
			c0.5-0.1,0.9-0.4,1.1-0.8C234.7,70.5,234.7,70.3,234.7,70.2z"/>
	</g>
	<g>
		<path class="st0" d="M214.5,115.7c-2.7-1.8-5.7-3.5-8.9-3.5c-1.9,0-4.7,0.9-6.9,2.2c-8.4,5.5-14.7,19.5-13.3,25.9
			c0.5,2.1,1.7,2.9,4,2.9c10.5,0,19.7-13.7,25.6-25.2C215.6,117.2,215.3,116.2,214.5,115.7z"/>
	</g>
	<g>
		<path d="M298.9,103.8c-0.4-0.4-0.9-0.9-1.3-1.1c-0.1,0-0.1,0-0.2,0c-0.1,0-0.2,0-0.3,0c-2.7,0-8.6,8.3-21.7,28.1
			c-1.3,2.6-2.4,4.4-3.3,5.8h0c-4.2,8.2-6.8,11.2-7.9,10.7c-1.1-0.6,3.7-10.7,3.7-10.7h0c0.8-3,2.9-7.9,3-8
			c3.3-10.3,6.2-21.1,3.6-24.6c-0.6-0.8-1.2-1.2-2.2-1.4c-2,0-8.6,4.2-28.2,41.3l-10.6,22.5v0c-1,2.2-2.3,5.3-2.5,5.7
			c-0.3,0.5-2.1,1-0.2-4.2l0,0l7.8-25.8l0,0l7.5-30.6c0.2-0.7-0.5-1.4-1.2-1.6c-0.2,0-0.9,0.6-1.4,1.6l-2.9,11.3
			c0,0.2-0.1,0.3-0.2,0.4c-1.6,2.8-15.6,27.6-28.5,31.2c-0.2,0-0.3,0.1-0.5,0.1c-0.4,0-0.8-0.1-1.1-0.4c-0.5-0.4-0.7-0.9-0.7-1.5
			c0-6.9,5.4-23.6,10.6-39l2.1-5.9l0.1-0.2c0.2-0.9,0.4-1.4-1-2.3c-0.1,0-0.2,0.1-0.4,0.1c-0.2,0.2-0.5,0.5-0.9,1.2
			c0,0.3-0.1,0.7-0.4,1.4l-2,4.6c-0.2,0.5-0.7,0.9-1.3,1.1c-0.2,0-0.3,0.1-0.5,0.1c-0.4,0-0.8-0.1-1.2-0.4c-3-2.4-5.8-3.5-8.9-3.5
			c-2.2,0-5.6,1.1-8.2,2.6c-8.4,5.9-17.1,20.8-14.9,28.6c1,4.1,4.2,4.9,6.7,4.9c6.7,0,12.3-4.3,15.8-8c0,0,3.2-5.3,5.1-7.6l0,0
			c0,0,3.6-7.6,4.2-7.4c0.6,0.1,0.9,0.5,0.3,1.7c-0.6,1.3-3.2,8.4-3.2,8.4l0,0c-0.4,1.8-1.3,4.3-2.6,7.7c-1.6,6-1.8,11.9-1.6,14.1
			c0.7,1.6,1.9,2,2.6,2c6.3,0,14-5.6,22.1-16.2c0,0,2.8-5.4,4.4-7.4l0,0c0,0,2.8-5.9,3-5.1c0.2,0.8-1.6,7.4-2.3,8.7l0,0
			c-0.5,1.8-1.2,4.1-2,6.2c-3.5,13.9-6.3,25.1-8.6,35.2c0.1,0.5,0.3,1.1,0.6,1.5c0.2,0.1,0.3,0.1,0.4,0.2c0.1,0,0.2,0,0.3,0
			c0.6,0,0.9-0.5,1-0.7c14.2-28.6,32.3-62.7,40.8-72.7c0.4-0.4,0.9-0.7,1.4-0.7c0.2,0,0.5,0,0.7,0.2c0.8,0.3,1.2,1.1,1.1,1.9
			c-1,9.2-5.6,23.8-8.2,31c-3.2,9.3-3.9,11.6-3.4,12.9c0,0,0.1,0,0.1,0.1c0.4,0.4,0.9,0.7,1.4,0.7c1.6,0,3.2-2.5,11.8-15.7l0.5-0.8
			l1.3-2l13.6-20.4c0,0,3.9-6.9,5.4-7.1c1.5-0.1,2.3,1-0.7,9l0,0c-3.2,11.4-9.5,30.5-16,48c0,0.1,0,0.1-0.1,0.2
			c0,0.2,0.3,0.9,0.9,1.4c0.8-0.1,1.5-0.5,1.6-0.7C298.6,117,299.5,106.2,298.9,103.8z M215.2,118.1c-5.9,11.5-15.1,25.2-25.6,25.2
			c-2.3,0-3.5-0.8-4-2.9c-1.4-6.4,4.9-20.4,13.3-25.9c2.1-1.3,4.9-2.2,6.9-2.2c3.2,0,6.1,1.7,8.9,3.5
			C215.3,116.2,215.6,117.2,215.2,118.1z"/>
	</g>
	<g>
		<path d="M135.5,211.3c-0.3,0-0.6-0.2-0.8-0.5c-0.2-0.4,0-0.9,0.4-1.1c1.2-0.5,120.5-53.3,254.6-26.2c0.5,0.1,0.7,0.5,0.7,1
			c-0.1,0.5-0.6,0.7-1,0.7c-133.5-27-252.4,25.6-253.6,26.1C135.7,211.3,135.6,211.3,135.5,211.3z"/>
	</g>
</g>
</svg>
